<svg width="28" height="28" viewBox="0 0 28 28" fill="none" xmlns="http://www.w3.org/2000/svg">
<path d="M19.5413 4.15203V2.33203C19.5413 1.8537 19.1446 1.45703 18.6663 1.45703C18.1879 1.45703 17.7913 1.8537 17.7913 2.33203V4.08203H10.2079V2.33203C10.2079 1.8537 9.81128 1.45703 9.33295 1.45703C8.85462 1.45703 8.45795 1.8537 8.45795 2.33203V4.15203C5.30795 4.4437 3.77962 6.32203 3.54628 9.11036C3.52295 9.4487 3.80295 9.7287 4.12962 9.7287H23.8696C24.2079 9.7287 24.4879 9.43703 24.4529 9.11036C24.2196 6.32203 22.6913 4.4437 19.5413 4.15203Z" fill="white"/>
<path d="M23.3333 11.4805H4.66667C4.025 11.4805 3.5 12.0055 3.5 12.6471V19.8338C3.5 23.3338 5.25 25.6671 9.33333 25.6671H18.6667C22.75 25.6671 24.5 23.3338 24.5 19.8338V12.6471C24.5 12.0055 23.975 11.4805 23.3333 11.4805ZM10.745 21.2455C10.6867 21.2921 10.6283 21.3505 10.57 21.3855C10.5 21.4321 10.43 21.4671 10.36 21.4905C10.29 21.5255 10.22 21.5488 10.15 21.5605C10.0683 21.5721 9.99833 21.5838 9.91667 21.5838C9.765 21.5838 9.61333 21.5488 9.47333 21.4905C9.32167 21.4321 9.205 21.3505 9.08833 21.2455C8.87833 21.0238 8.75 20.7205 8.75 20.4171C8.75 20.1138 8.87833 19.8105 9.08833 19.5888C9.205 19.4838 9.32167 19.4021 9.47333 19.3438C9.68333 19.2505 9.91667 19.2271 10.15 19.2738C10.22 19.2855 10.29 19.3088 10.36 19.3438C10.43 19.3671 10.5 19.4021 10.57 19.4488C10.6283 19.4955 10.6867 19.5421 10.745 19.5888C10.955 19.8105 11.0833 20.1138 11.0833 20.4171C11.0833 20.7205 10.955 21.0238 10.745 21.2455ZM10.745 17.1621C10.5233 17.3721 10.22 17.5005 9.91667 17.5005C9.61333 17.5005 9.31 17.3721 9.08833 17.1621C8.87833 16.9405 8.75 16.6371 8.75 16.3338C8.75 16.0305 8.87833 15.7271 9.08833 15.5055C9.415 15.1788 9.92833 15.0738 10.36 15.2605C10.5117 15.3188 10.64 15.4005 10.745 15.5055C10.955 15.7271 11.0833 16.0305 11.0833 16.3338C11.0833 16.6371 10.955 16.9405 10.745 17.1621ZM14.8283 21.2455C14.6067 21.4555 14.3033 21.5838 14 21.5838C13.6967 21.5838 13.3933 21.4555 13.1717 21.2455C12.9617 21.0238 12.8333 20.7205 12.8333 20.4171C12.8333 20.1138 12.9617 19.8105 13.1717 19.5888C13.6033 19.1571 14.3967 19.1571 14.8283 19.5888C15.0383 19.8105 15.1667 20.1138 15.1667 20.4171C15.1667 20.7205 15.0383 21.0238 14.8283 21.2455ZM14.8283 17.1621C14.77 17.2088 14.7117 17.2555 14.6533 17.3021C14.5833 17.3488 14.5133 17.3838 14.4433 17.4071C14.3733 17.4421 14.3033 17.4655 14.2333 17.4771C14.1517 17.4888 14.0817 17.5005 14 17.5005C13.6967 17.5005 13.3933 17.3721 13.1717 17.1621C12.9617 16.9405 12.8333 16.6371 12.8333 16.3338C12.8333 16.0305 12.9617 15.7271 13.1717 15.5055C13.2767 15.4005 13.405 15.3188 13.5567 15.2605C13.9883 15.0738 14.5017 15.1788 14.8283 15.5055C15.0383 15.7271 15.1667 16.0305 15.1667 16.3338C15.1667 16.6371 15.0383 16.9405 14.8283 17.1621ZM18.9117 21.2455C18.69 21.4555 18.3867 21.5838 18.0833 21.5838C17.78 21.5838 17.4767 21.4555 17.255 21.2455C17.045 21.0238 16.9167 20.7205 16.9167 20.4171C16.9167 20.1138 17.045 19.8105 17.255 19.5888C17.6867 19.1571 18.48 19.1571 18.9117 19.5888C19.1217 19.8105 19.25 20.1138 19.25 20.4171C19.25 20.7205 19.1217 21.0238 18.9117 21.2455ZM18.9117 17.1621C18.8533 17.2088 18.795 17.2555 18.7367 17.3021C18.6667 17.3488 18.5967 17.3838 18.5267 17.4071C18.4567 17.4421 18.3867 17.4655 18.3167 17.4771C18.235 17.4888 18.1533 17.5005 18.0833 17.5005C17.78 17.5005 17.4767 17.3721 17.255 17.1621C17.045 16.9405 16.9167 16.6371 16.9167 16.3338C16.9167 16.0305 17.045 15.7271 17.255 15.5055C17.3717 15.4005 17.4883 15.3188 17.64 15.2605C17.85 15.1671 18.0833 15.1438 18.3167 15.1905C18.3867 15.2021 18.4567 15.2255 18.5267 15.2605C18.5967 15.2838 18.6667 15.3188 18.7367 15.3655C18.795 15.4121 18.8533 15.4588 18.9117 15.5055C19.1217 15.7271 19.25 16.0305 19.25 16.3338C19.25 16.6371 19.1217 16.9405 18.9117 17.1621Z" fill="white"/>
</svg>
