<svg width="1600" height="733" viewBox="0 0 1600 733" fill="none" xmlns="http://www.w3.org/2000/svg">
<g clip-path="url(#clip0_2004_14024)">
<rect width="1600" height="733" rx="8" fill="url(#paint0_linear_2004_14024)"/>
<g opacity="0.23">
<g opacity="0.09">
<line x1="-76" y1="437.37" x2="1937" y2="437.37" stroke="#9DA116" stroke-width="1.2607"/>
<line x1="-76" y1="115.37" x2="1937" y2="115.37" stroke="#9DA116" stroke-width="1.2607"/>
<line x1="-76" y1="276.37" x2="1937" y2="276.37" stroke="#9DA116" stroke-width="1.2607"/>
<line x1="-76" y1="599.37" x2="1937" y2="599.37" stroke="#9DA116" stroke-width="1.2607"/>
<line x1="-76" y1="357.37" x2="1937" y2="357.37" stroke="#9DA116" stroke-width="1.2607"/>
<line x1="-76" y1="679.37" x2="1937" y2="679.37" stroke="#9DA116" stroke-width="1.2607"/>
<line x1="-76" y1="34.3697" x2="1937" y2="34.3697" stroke="#9DA116" stroke-width="1.2607"/>
<line x1="-76" y1="195.37" x2="1937" y2="195.37" stroke="#9DA116" stroke-width="1.2607"/>
<line x1="-76" y1="518.37" x2="1937" y2="518.37" stroke="#9DA116" stroke-width="1.2607"/>
<line x1="616.63" y1="-242" x2="616.63" y2="838" stroke="#222020" stroke-width="1.2607"/>
<line x1="293.63" y1="-242" x2="293.63" y2="838" stroke="#222020" stroke-width="1.2607"/>
<line x1="939.63" y1="-242" x2="939.63" y2="838" stroke="#222020" stroke-width="1.2607"/>
<line x1="1262.63" y1="-242" x2="1262.63" y2="838" stroke="#222020" stroke-width="1.2607"/>
<line x1="132.63" y1="-242" x2="132.63" y2="838" stroke="#222020" stroke-width="1.2607"/>
<line x1="777.63" y1="-242" x2="777.63" y2="838" stroke="#222020" stroke-width="1.2607"/>
<line x1="455.63" y1="-242" x2="455.63" y2="838" stroke="#222020" stroke-width="1.2607"/>
<line x1="1100.63" y1="-242" x2="1100.63" y2="838" stroke="#222020" stroke-width="1.2607"/>
<line x1="1423.63" y1="-242" x2="1423.63" y2="838" stroke="#222020" stroke-width="1.2607"/>
<line x1="51.6303" y1="-242" x2="51.6303" y2="838" stroke="#222020" stroke-width="1.2607"/>
<line x1="697.63" y1="-242" x2="697.63" y2="838" stroke="#222020" stroke-width="1.2607"/>
<line x1="374.63" y1="-242" x2="374.63" y2="838" stroke="#222020" stroke-width="1.2607"/>
<line x1="1020.63" y1="-242" x2="1020.63" y2="838" stroke="#222020" stroke-width="1.2607"/>
<line x1="1342.63" y1="-242" x2="1342.63" y2="838" stroke="#222020" stroke-width="1.2607"/>
<line x1="213.63" y1="-242" x2="213.63" y2="838" stroke="#222020" stroke-width="1.2607"/>
<line x1="858.63" y1="-242" x2="858.63" y2="838" stroke="#222020" stroke-width="1.2607"/>
<line x1="535.63" y1="-242" x2="535.63" y2="838" stroke="#222020" stroke-width="1.2607"/>
<line x1="1181.63" y1="-242" x2="1181.63" y2="838" stroke="#222020" stroke-width="1.2607"/>
<line x1="1586.63" y1="-242" x2="1586.63" y2="838" stroke="#222020" stroke-width="1.2607"/>
<line x1="1504.63" y1="-242" x2="1504.63" y2="838" stroke="#222020" stroke-width="1.2607"/>
</g>
<g opacity="0.5">
<rect x="374.758" y="598.953" width="80.2262" height="80.2262" fill="#F1E189"/>
<rect x="1101.38" y="35.0781" width="80.2262" height="79.0801" fill="#F1E189"/>
<rect x="1020.01" y="115.305" width="80.2262" height="79.0801" fill="#F1E189"/>
<rect x="374.613" y="35.0781" width="80.2262" height="79.0801" fill="#F1E189"/>
<rect x="1020.01" y="35.0781" width="80.2262" height="79.0801" fill="#F1E189"/>
<rect x="294.531" y="598.953" width="80.2262" height="80.2262" fill="#F1E189"/>
<rect x="294.531" y="679.18" width="80.2262" height="81.3723" fill="#F1E189"/>
<rect x="132.934" y="518.727" width="80.2262" height="80.2262" fill="#F1E189"/>
<rect x="132.934" y="-47.4414" width="81.3723" height="82.5184" fill="#F1E189"/>
<rect x="51.5625" y="-47.4414" width="81.3723" height="82.5184" fill="#F1E189"/>
<rect x="132.934" y="114.156" width="80.2262" height="81.3723" fill="#F1E189"/>
<rect x="1101.38" y="518.727" width="80.2262" height="80.2262" fill="#F1E189"/>
<rect x="1181.61" y="598.953" width="80.2262" height="80.2262" fill="#F1E189"/>
</g>
</g>
<rect opacity="0.46" x="-160" y="495" width="1920" height="238" fill="url(#paint1_linear_2004_14024)"/>
</g>
<defs>
<linearGradient id="paint0_linear_2004_14024" x1="800" y1="2736.41" x2="825.817" y2="68.254" gradientUnits="userSpaceOnUse">
<stop stop-color="#F1E189"/>
<stop offset="1" stop-color="#B7BB32"/>
</linearGradient>
<linearGradient id="paint1_linear_2004_14024" x1="800" y1="495" x2="800" y2="733" gradientUnits="userSpaceOnUse">
<stop stop-color="white" stop-opacity="0"/>
<stop offset="1" stop-color="white"/>
</linearGradient>
<clipPath id="clip0_2004_14024">
<rect width="1600" height="733" rx="8" fill="white"/>
</clipPath>
</defs>
</svg>
