<svg width="120" height="40" viewBox="0 0 120 40" fill="none" xmlns="http://www.w3.org/2000/svg">
<rect x="0.5" y="0.5" width="119" height="39" rx="5.5" fill="black"/>
<rect x="0.5" y="0.5" width="119" height="39" rx="5.5" stroke="#A6A6A6"/>
<path d="M24.7045 20.763C24.7166 19.8431 24.9669 18.9411 25.4321 18.141C25.8972 17.3409 26.5621 16.6687 27.3648 16.1869C26.8548 15.4758 26.1821 14.8907 25.4 14.4779C24.6178 14.065 23.7479 13.836 22.8592 13.8088C20.9635 13.6146 19.1258 14.9163 18.1598 14.9163C17.1751 14.9163 15.6878 13.8281 14.0862 13.8603C13.0502 13.893 12.0406 14.1871 11.1557 14.714C10.2708 15.2408 9.54075 15.9825 9.03674 16.8668C6.85352 20.5571 8.48201 25.9808 10.5734 28.9639C11.6197 30.4246 12.8426 32.0562 14.4428 31.9984C16.0086 31.9349 16.5934 31.0235 18.4835 31.0235C20.3561 31.0235 20.9048 31.9984 22.5374 31.9616C24.2176 31.9349 25.2762 30.4944 26.2859 29.0198C27.0377 27.979 27.6162 26.8287 28 25.6115C27.0238 25.2084 26.1908 24.5337 25.6048 23.6715C25.0187 22.8093 24.7056 21.7977 24.7045 20.763Z" fill="white"/>
<path d="M21.622 11.8471C22.5381 10.7734 22.9895 9.39335 22.8802 8C21.4806 8.14352 20.1877 8.7966 19.2592 9.82911C18.8052 10.3335 18.4575 10.9203 18.236 11.556C18.0145 12.1917 17.9234 12.8638 17.9681 13.5338C18.6681 13.5408 19.3607 13.3927 19.9936 13.1005C20.6266 12.8084 21.1833 12.3798 21.622 11.8471Z" fill="white"/>
<path d="M36.791 8.50146H38.8608C39.7456 8.50146 40.4092 8.75635 40.8516 9.26611C41.2969 9.77588 41.5195 10.5186 41.5195 11.4941C41.5195 12.4697 41.2969 13.2153 40.8516 13.731C40.4062 14.2437 39.7427 14.5 38.8608 14.5H36.791V8.50146ZM37.7886 9.34082V13.6606H38.751C39.3428 13.6606 39.7808 13.4819 40.0649 13.1245C40.3521 12.7671 40.4956 12.228 40.4956 11.5073C40.4956 10.7808 40.3521 10.2388 40.0649 9.88135C39.7778 9.521 39.3398 9.34082 38.751 9.34082H37.7886ZM44.6748 9.77588C45.29 9.77588 45.7866 9.96338 46.1646 10.3384C46.5454 10.7134 46.7358 11.2231 46.7358 11.8677V12.4697C46.7358 13.1318 46.5469 13.6489 46.1689 14.021C45.791 14.3931 45.293 14.5791 44.6748 14.5791C44.0479 14.5791 43.5454 14.3945 43.1675 14.0254C42.7925 13.6562 42.605 13.1392 42.605 12.4741V11.8721C42.605 11.2422 42.7969 10.7354 43.1807 10.3516C43.5645 9.96777 44.0625 9.77588 44.6748 9.77588ZM44.6792 10.5625C44.3394 10.5625 44.0728 10.6899 43.8794 10.9448C43.686 11.1968 43.5894 11.522 43.5894 11.9204V12.439C43.5894 12.8433 43.6831 13.1699 43.8706 13.4189C44.061 13.668 44.3306 13.7925 44.6792 13.7925C45.0249 13.7925 45.29 13.668 45.4746 13.4189C45.6621 13.1699 45.7559 12.8433 45.7559 12.439V11.9204C45.7559 11.519 45.6606 11.1924 45.4702 10.9404C45.2798 10.6885 45.0161 10.5625 44.6792 10.5625ZM53.8989 9.85498L52.6772 14.5H51.6841L50.7129 11.0723H50.6865L49.7329 14.5H48.7354L47.4609 9.85498H48.5112L49.2583 13.397H49.3022L50.2383 9.85498H51.1567L52.1191 13.397H52.1631L52.9233 9.85498H53.8989ZM54.8657 14.5V9.85498H55.8237V10.6899H55.8721C55.8984 10.6079 55.9307 10.5303 55.9688 10.457C56.0098 10.3809 56.0684 10.3003 56.1445 10.2153C56.2207 10.1304 56.3071 10.0586 56.4038 10C56.5005 9.93848 56.6235 9.88721 56.7729 9.84619C56.9253 9.80518 57.0908 9.78467 57.2695 9.78467C57.7529 9.78467 58.1338 9.91943 58.4121 10.189C58.6934 10.4556 58.834 10.8467 58.834 11.3623V14.5H57.8584V11.6479C57.8584 11.3052 57.7764 11.0474 57.6123 10.8745C57.4482 10.7017 57.2241 10.6152 56.9399 10.6152C56.5913 10.6152 56.3203 10.7354 56.127 10.9756C55.9365 11.2158 55.8413 11.5308 55.8413 11.9204V14.5H54.8657ZM60.3105 14.5V8.18506H61.2861V14.5H60.3105ZM64.6348 9.77588C65.25 9.77588 65.7466 9.96338 66.1245 10.3384C66.5054 10.7134 66.6958 11.2231 66.6958 11.8677V12.4697C66.6958 13.1318 66.5068 13.6489 66.1289 14.021C65.751 14.3931 65.2529 14.5791 64.6348 14.5791C64.0078 14.5791 63.5054 14.3945 63.1274 14.0254C62.7524 13.6562 62.5649 13.1392 62.5649 12.4741V11.8721C62.5649 11.2422 62.7568 10.7354 63.1406 10.3516C63.5244 9.96777 64.0225 9.77588 64.6348 9.77588ZM64.6392 10.5625C64.2993 10.5625 64.0327 10.6899 63.8394 10.9448C63.646 11.1968 63.5493 11.522 63.5493 11.9204V12.439C63.5493 12.8433 63.6431 13.1699 63.8306 13.4189C64.021 13.668 64.2905 13.7925 64.6392 13.7925C64.9849 13.7925 65.25 13.668 65.4346 13.4189C65.6221 13.1699 65.7158 12.8433 65.7158 12.439V11.9204C65.7158 11.519 65.6206 11.1924 65.4302 10.9404C65.2397 10.6885 64.9761 10.5625 64.6392 10.5625ZM69.2227 14.5703C68.7686 14.5703 68.4009 14.4414 68.1196 14.1836C67.8413 13.9258 67.7021 13.5815 67.7021 13.1509C67.7021 12.7319 67.8442 12.3979 68.1284 12.1489C68.4155 11.8999 68.8213 11.7754 69.3457 11.7754H70.519V11.3403C70.519 11.0796 70.4414 10.8848 70.2861 10.7559C70.1338 10.624 69.9199 10.5581 69.6445 10.5581C69.1699 10.5581 68.8901 10.7339 68.8052 11.0854H67.8779C67.9072 10.6841 68.0728 10.3677 68.3745 10.1362C68.6792 9.90186 69.1128 9.78467 69.6753 9.78467C69.9331 9.78467 70.1675 9.81396 70.3784 9.87256C70.5923 9.92822 70.7842 10.0161 70.9541 10.1362C71.124 10.2534 71.2559 10.416 71.3496 10.624C71.4434 10.8291 71.4902 11.0723 71.4902 11.3535V14.5H70.563V13.8979H70.519C70.4048 14.0972 70.2393 14.2598 70.0225 14.3857C69.8086 14.5088 69.542 14.5703 69.2227 14.5703ZM69.5259 13.8145C69.8042 13.8145 70.0386 13.731 70.229 13.564C70.4224 13.394 70.519 13.1831 70.519 12.9312V12.4302H69.4995C69.2271 12.4302 69.022 12.4917 68.8843 12.6147C68.7495 12.7378 68.6821 12.9004 68.6821 13.1025C68.6821 13.3311 68.7627 13.5068 68.9238 13.6299C69.0879 13.7529 69.2886 13.8145 69.5259 13.8145ZM74.4961 9.79346C74.8213 9.79346 75.1025 9.86084 75.3398 9.99561C75.5771 10.1304 75.7412 10.3164 75.832 10.5537H75.8804V8.18506H76.856V14.5H75.9067V13.7573H75.8584C75.7881 13.9946 75.6255 14.188 75.3706 14.3374C75.1157 14.4868 74.8198 14.5615 74.4829 14.5615C73.9468 14.5615 73.519 14.3828 73.1997 14.0254C72.8804 13.668 72.7207 13.1846 72.7207 12.5752V11.7798C72.7207 11.1704 72.8818 10.687 73.2041 10.3296C73.5293 9.97217 73.96 9.79346 74.4961 9.79346ZM74.7686 10.5933C74.4404 10.5933 74.1826 10.7104 73.9951 10.9448C73.8076 11.1763 73.7139 11.5015 73.7139 11.9204V12.4302C73.7139 12.8521 73.8091 13.1802 73.9995 13.4146C74.1899 13.646 74.4536 13.7617 74.7905 13.7617C75.1216 13.7617 75.3853 13.6489 75.5815 13.4233C75.7808 13.1948 75.8804 12.8843 75.8804 12.4917V11.7886C75.8804 11.4341 75.7764 11.147 75.5684 10.9272C75.3604 10.7046 75.0938 10.5933 74.7686 10.5933ZM82.2129 9.77588C82.8281 9.77588 83.3247 9.96338 83.7026 10.3384C84.0835 10.7134 84.2739 11.2231 84.2739 11.8677V12.4697C84.2739 13.1318 84.085 13.6489 83.707 14.021C83.3291 14.3931 82.8311 14.5791 82.2129 14.5791C81.5859 14.5791 81.0835 14.3945 80.7056 14.0254C80.3306 13.6562 80.1431 13.1392 80.1431 12.4741V11.8721C80.1431 11.2422 80.335 10.7354 80.7188 10.3516C81.1025 9.96777 81.6006 9.77588 82.2129 9.77588ZM82.2173 10.5625C81.8774 10.5625 81.6108 10.6899 81.4175 10.9448C81.2241 11.1968 81.1274 11.522 81.1274 11.9204V12.439C81.1274 12.8433 81.2212 13.1699 81.4087 13.4189C81.5991 13.668 81.8687 13.7925 82.2173 13.7925C82.563 13.7925 82.8281 13.668 83.0127 13.4189C83.2002 13.1699 83.2939 12.8433 83.2939 12.439V11.9204C83.2939 11.519 83.1987 11.1924 83.0083 10.9404C82.8179 10.6885 82.5542 10.5625 82.2173 10.5625ZM85.5308 14.5V9.85498H86.4888V10.6899H86.5371C86.5635 10.6079 86.5957 10.5303 86.6338 10.457C86.6748 10.3809 86.7334 10.3003 86.8096 10.2153C86.8857 10.1304 86.9722 10.0586 87.0688 10C87.1655 9.93848 87.2886 9.88721 87.438 9.84619C87.5903 9.80518 87.7559 9.78467 87.9346 9.78467C88.418 9.78467 88.7988 9.91943 89.0771 10.189C89.3584 10.4556 89.499 10.8467 89.499 11.3623V14.5H88.5234V11.6479C88.5234 11.3052 88.4414 11.0474 88.2773 10.8745C88.1133 10.7017 87.8892 10.6152 87.605 10.6152C87.2563 10.6152 86.9854 10.7354 86.792 10.9756C86.6016 11.2158 86.5063 11.5308 86.5063 11.9204V14.5H85.5308ZM93.2739 9.88574V8.72559H94.2275V9.88574H95.269V10.6504H94.2275V13.1157C94.2275 13.3647 94.2788 13.5347 94.3813 13.6255C94.4868 13.7163 94.6729 13.7617 94.9395 13.7617C95.0947 13.7617 95.2222 13.7559 95.3218 13.7441V14.4912C95.1636 14.5176 94.9556 14.5308 94.6978 14.5308C94.1499 14.5308 93.7734 14.4297 93.5684 14.2275C93.3633 14.0225 93.2607 13.6782 93.2607 13.1948V10.6504H92.5532V9.88574H93.2739ZM96.4995 14.5V8.18506H97.4707V10.6899H97.519C97.5483 10.5962 97.5938 10.5024 97.6553 10.4087C97.7168 10.312 97.8003 10.2153 97.9058 10.1187C98.0142 10.019 98.1562 9.93848 98.332 9.87695C98.5107 9.81543 98.71 9.78467 98.9297 9.78467C99.3984 9.78467 99.7734 9.9209 100.055 10.1934C100.339 10.4629 100.481 10.854 100.481 11.3667V14.5H99.5098V11.6523C99.5098 11.3096 99.4233 11.0518 99.2505 10.8789C99.0806 10.7031 98.8521 10.6152 98.5649 10.6152C98.2222 10.6152 97.9541 10.7368 97.7607 10.98C97.5674 11.2202 97.4707 11.5337 97.4707 11.9204V14.5H96.4995ZM103.755 14.5791C103.119 14.5791 102.618 14.3945 102.252 14.0254C101.886 13.6562 101.703 13.145 101.703 12.4917V11.8633C101.703 11.2188 101.889 10.7104 102.261 10.3384C102.636 9.96338 103.115 9.77588 103.698 9.77588C104.287 9.77588 104.764 9.96631 105.13 10.3472C105.5 10.7251 105.684 11.2305 105.684 11.8633V12.4082H102.669V12.6367C102.669 12.9795 102.766 13.2593 102.959 13.4761C103.153 13.6899 103.417 13.7969 103.75 13.7969C103.997 13.7969 104.203 13.7456 104.37 13.6431C104.54 13.5405 104.643 13.4146 104.678 13.2651H105.631C105.617 13.4087 105.568 13.5537 105.486 13.7002C105.404 13.8467 105.29 13.9873 105.144 14.1221C105 14.2568 104.807 14.3667 104.563 14.4517C104.32 14.5366 104.051 14.5791 103.755 14.5791ZM102.669 11.771H104.73V11.7095C104.73 11.3608 104.637 11.0796 104.449 10.8657C104.262 10.6519 104.013 10.5449 103.702 10.5449C103.392 10.5449 103.141 10.6519 102.951 10.8657C102.763 11.0796 102.669 11.3608 102.669 11.7095V11.771Z" fill="white"/>
<path d="M38.2061 30.5H36.1758L40.3066 18.5029H42.5391L46.6611 30.5H44.5518L43.4883 27.1777H39.2783L38.2061 30.5ZM41.4316 20.5771H41.3525L39.7266 25.6484H43.04L41.4316 20.5771ZM52.2644 30.6318C51.6784 30.6318 51.1599 30.5059 50.7087 30.2539C50.2575 29.9961 49.906 29.6475 49.654 29.208H49.5837V33.585H47.6325V21.21H49.531V22.5723H49.6013C49.865 22.1152 50.2282 21.7549 50.6911 21.4912C51.1599 21.2217 51.6989 21.0869 52.3083 21.0869C53.3747 21.0869 54.2361 21.4736 54.8923 22.2471C55.5486 23.0146 55.8767 24.0781 55.8767 25.4375V26.2637C55.8767 27.623 55.5456 28.6924 54.8835 29.4717C54.2273 30.2451 53.3542 30.6318 52.2644 30.6318ZM51.8161 29.0234C52.4489 29.0234 52.9529 28.7744 53.3279 28.2764C53.7087 27.7783 53.8991 27.0723 53.8991 26.1582V25.5078C53.8991 24.6113 53.7116 23.917 53.3366 23.4248C52.9675 22.9268 52.4489 22.6777 51.781 22.6777C51.1013 22.6777 50.5622 22.9326 50.1638 23.4424C49.7654 23.9521 49.5661 24.6377 49.5661 25.499V26.1582C49.5661 27.0371 49.7683 27.7344 50.1726 28.25C50.5769 28.7656 51.1247 29.0234 51.8161 29.0234ZM62.183 30.6318C61.5971 30.6318 61.0786 30.5059 60.6274 30.2539C60.1762 29.9961 59.8246 29.6475 59.5727 29.208H59.5024V33.585H57.5512V21.21H59.4496V22.5723H59.52C59.7836 22.1152 60.1469 21.7549 60.6098 21.4912C61.0786 21.2217 61.6176 21.0869 62.227 21.0869C63.2934 21.0869 64.1547 21.4736 64.811 22.2471C65.4672 23.0146 65.7954 24.0781 65.7954 25.4375V26.2637C65.7954 27.623 65.4643 28.6924 64.8022 29.4717C64.1459 30.2451 63.2729 30.6318 62.183 30.6318ZM61.7348 29.0234C62.3676 29.0234 62.8715 28.7744 63.2465 28.2764C63.6274 27.7783 63.8178 27.0723 63.8178 26.1582V25.5078C63.8178 24.6113 63.6303 23.917 63.2553 23.4248C62.8862 22.9268 62.3676 22.6777 61.6996 22.6777C61.02 22.6777 60.4809 22.9326 60.0825 23.4424C59.684 23.9521 59.4848 24.6377 59.4848 25.499V26.1582C59.4848 27.0371 59.687 27.7344 60.0912 28.25C60.4955 28.7656 61.0434 29.0234 61.7348 29.0234ZM69.8387 27.1689H71.7899C71.8368 27.7197 72.0946 28.1797 72.5634 28.5488C73.038 28.9121 73.6796 29.0938 74.4882 29.0938C75.2616 29.0938 75.868 28.9268 76.3075 28.5928C76.747 28.2529 76.9667 27.7988 76.9667 27.2305C76.9667 26.7793 76.8143 26.4219 76.5096 26.1582C76.205 25.8887 75.7245 25.6748 75.0682 25.5166L73.0995 25.0244C72.6893 24.9307 72.3173 24.8018 71.9833 24.6377C71.6493 24.4736 71.3417 24.2656 71.0604 24.0137C70.7792 23.7559 70.5595 23.4395 70.4012 23.0645C70.243 22.6836 70.1639 22.2588 70.1639 21.79C70.1639 21.0518 70.3632 20.4102 70.7616 19.8652C71.1659 19.3145 71.6903 18.9072 72.3348 18.6436C72.9852 18.374 73.7059 18.2393 74.497 18.2393C75.7098 18.2393 76.7264 18.5527 77.5468 19.1797C78.3671 19.8008 78.7889 20.6533 78.8124 21.7373H76.8964C76.8495 21.1924 76.618 20.7471 76.202 20.4014C75.7919 20.0498 75.2147 19.874 74.4706 19.874C73.7733 19.874 73.2137 20.0322 72.7919 20.3486C72.3759 20.6592 72.1679 21.0898 72.1679 21.6406C72.1679 22.4551 72.7216 22.9883 73.829 23.2402L75.7889 23.7236C76.2694 23.8408 76.6913 23.9844 77.0546 24.1543C77.4179 24.3184 77.7489 24.5293 78.0477 24.7871C78.3466 25.0449 78.5721 25.3643 78.7245 25.7451C78.8827 26.126 78.9618 26.5625 78.9618 27.0547C78.9618 28.209 78.537 29.1113 77.6874 29.7617C76.8436 30.4121 75.7274 30.7373 74.3387 30.7373C73.6942 30.7373 73.1112 30.6641 72.5897 30.5176C72.0741 30.3711 71.6493 30.1807 71.3153 29.9463C70.9872 29.7119 70.7089 29.4365 70.4804 29.1201C70.2577 28.8037 70.0966 28.4844 69.997 28.1621C69.9032 27.8398 69.8505 27.5088 69.8387 27.1689ZM81.3395 21.21V18.9512H83.2555V21.21H85.066V22.7744H83.2555V27.7314C83.2555 28.2295 83.358 28.5693 83.5631 28.751C83.774 28.9326 84.1461 29.0234 84.6793 29.0234C84.8961 29.0234 85.0426 29.0176 85.1188 29.0059V30.5C84.8727 30.541 84.565 30.5615 84.1959 30.5615C83.4459 30.5615 82.86 30.4648 82.4381 30.2715C82.0162 30.0781 81.7232 29.7939 81.5592 29.4189C81.3951 29.0439 81.3131 28.5342 81.3131 27.8896V22.7744H80.0299V21.21H81.3395ZM87.2855 22.2822C88.0179 21.4619 89.0345 21.0518 90.3353 21.0518C91.6361 21.0518 92.6468 21.4619 93.3675 22.2822C94.0941 23.0967 94.4573 24.1572 94.4573 25.4639V26.2109C94.4573 27.5527 94.097 28.6309 93.3763 29.4453C92.6614 30.2539 91.6478 30.6582 90.3353 30.6582C89.0228 30.6582 88.0032 30.2539 87.2767 29.4453C86.556 28.6309 86.1956 27.5527 86.1956 26.2109V25.4639C86.1956 24.1631 86.5589 23.1025 87.2855 22.2822ZM91.9437 23.3984C91.5745 22.877 91.0384 22.6162 90.3353 22.6162C89.6321 22.6162 89.0931 22.877 88.7181 23.3984C88.3489 23.9199 88.1644 24.6172 88.1644 25.4902V26.2021C88.1644 27.0693 88.3489 27.7666 88.7181 28.2939C89.0931 28.8213 89.6321 29.085 90.3353 29.085C91.0384 29.085 91.5745 28.8213 91.9437 28.2939C92.3128 27.7666 92.4974 27.0693 92.4974 26.2021V25.4902C92.4974 24.6113 92.3128 23.9141 91.9437 23.3984ZM96.1055 30.5V21.21H98.0567V22.4316H98.127C98.2735 22.0801 98.5342 21.7666 98.9092 21.4912C99.2842 21.2158 99.7647 21.0781 100.351 21.0781C100.608 21.0781 100.828 21.0957 101.01 21.1309V22.8535C100.834 22.8066 100.556 22.7832 100.175 22.7832C99.4366 22.7832 98.9034 22.9824 98.5752 23.3809C98.2471 23.7793 98.083 24.3184 98.083 24.998V30.5H96.1055ZM105.743 30.6582C104.495 30.6582 103.505 30.2686 102.772 29.4893C102.04 28.7041 101.674 27.6289 101.674 26.2637V25.3232C101.674 24.0225 102.034 22.9854 102.755 22.2119C103.475 21.4385 104.445 21.0518 105.664 21.0518C106.894 21.0518 107.864 21.4473 108.573 22.2383C109.282 23.0293 109.636 24.0869 109.636 25.4111V26.2988H103.598V26.5186C103.598 27.3037 103.795 27.9336 104.187 28.4082C104.58 28.8828 105.107 29.1201 105.769 29.1201C106.261 29.1201 106.672 29.0059 107 28.7773C107.328 28.5488 107.553 28.2324 107.677 27.8281H109.531C109.379 28.6426 108.98 29.3193 108.336 29.8584C107.691 30.3916 106.827 30.6582 105.743 30.6582ZM103.598 24.9365H107.729V24.9189C107.729 24.2451 107.539 23.6855 107.158 23.2402C106.777 22.7891 106.282 22.5635 105.673 22.5635C105.057 22.5635 104.556 22.7891 104.17 23.2402C103.789 23.6855 103.598 24.2451 103.598 24.9189V24.9365Z" fill="white"/>
</svg>
