<svg width="128" height="40" viewBox="0 0 128 40" fill="none" xmlns="http://www.w3.org/2000/svg">
<rect x="0.5" y="0.5" width="127" height="39" rx="5.5" fill="black"/>
<rect x="0.5" y="0.5" width="127" height="39" rx="5.5" stroke="#A6A6A6"/>
<path d="M20.8051 19.4617L11.0898 30.0059C11.0908 30.0078 11.0908 30.0106 11.0917 30.0125C11.3901 31.1574 12.412 32 13.6256 32C14.1111 32 14.5664 31.8656 14.957 31.6305L14.988 31.6118L25.9232 25.1593L20.8051 19.4617Z" fill="#EA4335"/>
<path d="M30.6312 17.6662L30.6221 17.6597L25.9009 14.8612L20.582 19.7013L25.9201 25.1582L30.6157 22.3878C31.4388 21.9324 31.9981 21.045 31.9981 20.0223C31.9981 19.0052 31.447 18.1225 30.6312 17.6662Z" fill="#FBBC04"/>
<path d="M11.0894 9.99911C11.031 10.2193 11 10.4507 11 10.6896V29.3221C11 29.561 11.031 29.7924 11.0903 30.0117L21.1386 19.7371L11.0894 9.99911Z" fill="#4285F4"/>
<path d="M20.8771 20L25.9049 14.8594L14.9825 8.3836C14.5856 8.14005 14.122 8.00009 13.6265 8.00009C12.4129 8.00009 11.3891 8.84456 11.0908 9.99043C11.0908 9.99136 11.0898 9.9923 11.0898 9.99323L20.8771 20Z" fill="#34A853"/>
<path d="M46.61 11.71C46.61 12.71 46.3133 13.5067 45.72 14.1C45.0533 14.8067 44.1767 15.16 43.09 15.16C42.05 15.16 41.17 14.8 40.45 14.08C39.73 13.36 39.37 12.4733 39.37 11.42C39.37 10.3667 39.73 9.48 40.45 8.76C41.17 8.04 42.05 7.68 43.09 7.68C43.6167 7.68 44.1133 7.77333 44.58 7.96C45.0467 8.14667 45.43 8.41 45.73 8.75L45.07 9.41C44.85 9.14333 44.5633 8.93667 44.21 8.79C43.8633 8.63667 43.49 8.56 43.09 8.56C42.31 8.56 41.65 8.83 41.11 9.37C40.5767 9.91667 40.31 10.6 40.31 11.42C40.31 12.24 40.5767 12.9233 41.11 13.47C41.65 14.01 42.31 14.28 43.09 14.28C43.8033 14.28 44.3967 14.08 44.87 13.68C45.3433 13.28 45.6167 12.73 45.69 12.03H43.09V11.17H46.56C46.5933 11.3567 46.61 11.5367 46.61 11.71ZM51.9078 7.84V8.72H48.6478V10.99H51.5878V11.85H48.6478V14.12H51.9078V15H47.7278V7.84H51.9078ZM55.5877 8.72V15H54.6677V8.72H52.6677V7.84H57.5877V8.72H55.5877ZM61.6654 15H60.7454V7.84H61.6654V15ZM65.5487 8.72V15H64.6287V8.72H62.6287V7.84H67.5487V8.72H65.5487ZM77.521 11.42C77.521 12.48 77.1677 13.3667 76.461 14.08C75.7477 14.8 74.8743 15.16 73.841 15.16C72.801 15.16 71.9277 14.8 71.221 14.08C70.5143 13.3667 70.161 12.48 70.161 11.42C70.161 10.36 70.5143 9.47333 71.221 8.76C71.9277 8.04 72.801 7.68 73.841 7.68C74.881 7.68 75.7543 8.04333 76.461 8.77C77.1677 9.48333 77.521 10.3667 77.521 11.42ZM71.101 11.42C71.101 12.2467 71.361 12.93 71.881 13.47C72.4077 14.01 73.061 14.28 73.841 14.28C74.621 14.28 75.271 14.01 75.791 13.47C76.3177 12.9367 76.581 12.2533 76.581 11.42C76.581 10.5867 76.3177 9.90333 75.791 9.37C75.271 8.83 74.621 8.56 73.841 8.56C73.061 8.56 72.4077 8.83 71.881 9.37C71.361 9.91 71.101 10.5933 71.101 11.42ZM79.5267 15H78.6067V7.84H79.7267L83.2067 13.41H83.2467L83.2067 12.03V7.84H84.1267V15H83.1667L79.5267 9.16H79.4867L79.5267 10.54V15Z" fill="white"/>
<path d="M39 31.7421V20.1584H43.3477C44.2384 20.1584 44.9856 20.3243 45.5895 20.6561C46.1971 20.9879 46.6557 21.4442 46.9651 22.0249C47.2784 22.6018 47.435 23.2579 47.435 23.9932C47.435 24.736 47.2784 25.3959 46.9651 25.9729C46.6519 26.5498 46.1896 27.0041 45.5782 27.336C44.9668 27.664 44.2139 27.8281 43.3194 27.8281H40.4379V26.1029H43.0364C43.5572 26.1029 43.9836 26.0124 44.3158 25.8314C44.6479 25.6505 44.8932 25.4016 45.0517 25.0848C45.214 24.7681 45.2951 24.4042 45.2951 23.9932C45.2951 23.5822 45.214 23.2202 45.0517 22.9072C44.8932 22.5943 44.646 22.3511 44.3101 22.1776C43.978 22.0004 43.5496 21.9118 43.025 21.9118H41.1003V31.7421H39Z" fill="white"/>
<path d="M51.218 20.1584V31.7421H49.1687V20.1584H51.218Z" fill="white"/>
<path d="M55.8276 31.9174C55.2765 31.9174 54.7803 31.8194 54.3387 31.6233C53.9009 31.4235 53.5537 31.1293 53.2971 30.741C53.0442 30.3526 52.9178 29.8737 52.9178 29.3043C52.9178 28.8141 53.0083 28.4087 53.1895 28.0882C53.3707 27.7677 53.6179 27.5113 53.9311 27.319C54.2443 27.1267 54.5972 26.9815 54.9897 26.8835C55.386 26.7817 55.7955 26.7081 56.2182 26.6629C56.7277 26.6101 57.1409 26.563 57.458 26.5215C57.775 26.4762 58.0052 26.4084 58.1486 26.3179C58.2958 26.2236 58.3694 26.0784 58.3694 25.8824V25.8484C58.3694 25.4223 58.243 25.0924 57.9901 24.8586C57.7372 24.6248 57.373 24.5079 56.8975 24.5079C56.3956 24.5079 55.9974 24.6173 55.703 24.836C55.4124 25.0547 55.2162 25.313 55.1143 25.6109L53.2008 25.3394C53.3518 24.8115 53.6009 24.3703 53.9481 24.0158C54.2953 23.6576 54.7199 23.3899 55.2218 23.2127C55.7238 23.0317 56.2786 22.9412 56.8862 22.9412C57.3051 22.9412 57.7221 22.9902 58.1373 23.0882C58.5524 23.1863 58.9317 23.3484 59.2752 23.5747C59.6186 23.7971 59.8941 24.1007 60.1017 24.4853C60.313 24.8699 60.4187 25.3507 60.4187 25.9276V31.7421H58.4486V30.5486H58.3807C58.2562 30.79 58.0807 31.0162 57.8542 31.2274C57.6316 31.4348 57.3504 31.6026 57.0107 31.7308C56.6748 31.8552 56.2804 31.9174 55.8276 31.9174ZM56.3597 30.4129C56.7711 30.4129 57.1277 30.3318 57.4296 30.1697C57.7316 30.0038 57.9637 29.7851 58.126 29.5136C58.292 29.2421 58.375 28.9461 58.375 28.6256V27.6018C58.3109 27.6546 58.2014 27.7036 58.0467 27.7489C57.8957 27.7941 57.7259 27.8337 57.5372 27.8676C57.3485 27.9016 57.1617 27.9317 56.9768 27.9581C56.7918 27.9845 56.6314 28.0072 56.4956 28.026C56.1899 28.0675 55.9163 28.1354 55.6747 28.2296C55.4332 28.3239 55.2426 28.4559 55.1029 28.6256C54.9633 28.7915 54.8935 29.0064 54.8935 29.2704C54.8935 29.6474 55.0312 29.9321 55.3067 30.1244C55.5822 30.3167 55.9332 30.4129 56.3597 30.4129Z" fill="white"/>
<path d="M63.4417 35C63.1624 35 62.9039 34.9774 62.6661 34.9321C62.4322 34.8906 62.2453 34.8416 62.1057 34.7851L62.5812 33.19C62.8794 33.2768 63.1454 33.3182 63.3794 33.3145C63.6134 33.3107 63.8191 33.2372 63.9965 33.0939C64.1777 32.9544 64.3305 32.7206 64.455 32.3925L64.6305 31.9231L61.4773 23.0543H63.6512L65.6552 29.6154H65.7458L67.7555 23.0543H69.935L66.4534 32.7941C66.2911 33.2541 66.076 33.6482 65.808 33.9762C65.5401 34.3081 65.2117 34.5607 64.823 34.7342C64.4381 34.9114 63.9776 35 63.4417 35Z" fill="white"/>
<path d="M81.6987 23.3428C81.6459 22.8488 81.4232 22.4642 81.0307 22.1889C80.642 21.9137 80.1362 21.776 79.5135 21.776C79.0757 21.776 78.7002 21.842 78.387 21.974C78.0737 22.106 77.8341 22.2851 77.668 22.5113C77.5019 22.7376 77.417 22.9959 77.4133 23.2862C77.4133 23.5275 77.468 23.7368 77.5774 23.914C77.6907 24.0913 77.8435 24.2421 78.036 24.3665C78.2285 24.4872 78.4417 24.589 78.6757 24.6719C78.9097 24.7549 79.1455 24.8247 79.3833 24.8812L80.4702 25.1527C80.908 25.2545 81.3288 25.3922 81.7327 25.5656C82.1403 25.7391 82.5045 25.9578 82.8252 26.2217C83.1498 26.4857 83.4065 26.8043 83.5952 27.1776C83.7839 27.5509 83.8782 27.9883 83.8782 28.4898C83.8782 29.1686 83.7046 29.7662 83.3574 30.2828C83.0102 30.7956 82.5082 31.1972 81.8515 31.4876C81.1986 31.7741 80.408 31.9174 79.4796 31.9174C78.5776 31.9174 77.7944 31.7779 77.1302 31.4989C76.4697 31.2198 75.9527 30.8126 75.5791 30.2771C75.2092 29.7417 75.0092 29.0894 74.979 28.3201H77.0453C77.0755 28.7236 77.2 29.0592 77.4189 29.3269C77.6378 29.5946 77.9228 29.7945 78.2737 29.9265C78.6285 30.0584 79.0248 30.1244 79.4626 30.1244C79.9192 30.1244 80.3193 30.0566 80.6627 29.9208C81.0099 29.7813 81.2817 29.589 81.4779 29.3439C81.6742 29.095 81.7742 28.8047 81.778 28.4729C81.7742 28.1712 81.6855 27.9223 81.5119 27.7262C81.3383 27.5264 81.0948 27.3605 80.7816 27.2285C80.4721 27.0928 80.1098 26.9721 79.6947 26.8665L78.3756 26.5271C77.4208 26.2821 76.666 25.9106 76.1112 25.4129C75.5602 24.9114 75.2847 24.2459 75.2847 23.4163C75.2847 22.7338 75.4696 22.1361 75.8395 21.6233C76.2131 21.1105 76.7207 20.7127 77.3623 20.4299C78.0039 20.1433 78.7304 20 79.5418 20C80.3646 20 81.0854 20.1433 81.7044 20.4299C82.3271 20.7127 82.8158 21.1067 83.1706 21.612C83.5253 22.1135 83.7084 22.6904 83.7197 23.3428H81.6987Z" fill="white"/>
<path d="M90.0021 23.0543V24.638H85.0034V23.0543H90.0021ZM86.2375 20.9729H88.2868V29.129C88.2868 29.4042 88.3283 29.6154 88.4113 29.7624C88.4981 29.9057 88.6113 30.0038 88.751 30.0566C88.8906 30.1094 89.0454 30.1357 89.2152 30.1357C89.3435 30.1357 89.4605 30.1263 89.5662 30.1075C89.6756 30.0886 89.7587 30.0716 89.8153 30.0566L90.1606 31.6572C90.0511 31.6949 89.8945 31.7364 89.6907 31.7817C89.4907 31.8269 89.2454 31.8533 88.9548 31.8609C88.4415 31.8759 87.9792 31.7986 87.5678 31.629C87.1564 31.4555 86.83 31.1878 86.5885 30.8258C86.3507 30.4638 86.2337 30.0113 86.2375 29.4683V20.9729Z" fill="white"/>
<path d="M95.4155 31.9118C94.5663 31.9118 93.8304 31.7251 93.2077 31.3518C92.585 30.9785 92.1019 30.4563 91.7584 29.7851C91.4188 29.1139 91.2489 28.3296 91.2489 27.4321C91.2489 26.5347 91.4188 25.7485 91.7584 25.0735C92.1019 24.3986 92.585 23.8744 93.2077 23.5011C93.8304 23.1278 94.5663 22.9412 95.4155 22.9412C96.2647 22.9412 97.0006 23.1278 97.6233 23.5011C98.246 23.8744 98.7272 24.3986 99.0669 25.0735C99.4103 25.7485 99.582 26.5347 99.582 27.4321C99.582 28.3296 99.4103 29.1139 99.0669 29.7851C98.7272 30.4563 98.246 30.9785 97.6233 31.3518C97.0006 31.7251 96.2647 31.9118 95.4155 31.9118ZM95.4268 30.2715C95.8872 30.2715 96.2722 30.1452 96.5817 29.8925C96.8911 29.6361 97.1214 29.293 97.2723 28.8631C97.4271 28.4333 97.5044 27.9544 97.5044 27.4265C97.5044 26.8948 97.4271 26.414 97.2723 25.9842C97.1214 25.5505 96.8911 25.2055 96.5817 24.9491C96.2722 24.6927 95.8872 24.5645 95.4268 24.5645C94.9551 24.5645 94.5626 24.6927 94.2493 24.9491C93.9398 25.2055 93.7077 25.5505 93.553 25.9842C93.402 26.414 93.3266 26.8948 93.3266 27.4265C93.3266 27.9544 93.402 28.4333 93.553 28.8631C93.7077 29.293 93.9398 29.6361 94.2493 29.8925C94.5626 30.1452 94.9551 30.2715 95.4268 30.2715Z" fill="white"/>
<path d="M101.321 31.7421V23.0543H103.308V24.5023H103.399C103.558 24.0008 103.829 23.6143 104.214 23.3428C104.603 23.0675 105.046 22.9299 105.545 22.9299C105.658 22.9299 105.784 22.9355 105.924 22.9468C106.067 22.9544 106.186 22.9676 106.281 22.9864V24.8699C106.194 24.8397 106.056 24.8133 105.867 24.7907C105.682 24.7643 105.503 24.7511 105.329 24.7511C104.956 24.7511 104.62 24.8322 104.322 24.9943C104.027 25.1527 103.795 25.3733 103.625 25.6561C103.456 25.9389 103.371 26.2651 103.371 26.6346V31.7421H101.321Z" fill="white"/>
<path d="M111.133 31.9118C110.262 31.9118 109.509 31.7308 108.875 31.3688C108.244 31.003 107.759 30.4864 107.42 29.819C107.08 29.1478 106.91 28.3578 106.91 27.4491C106.91 26.5554 107.08 25.7711 107.42 25.0962C107.763 24.4174 108.243 23.8895 108.858 23.5124C109.473 23.1316 110.196 22.9412 111.026 22.9412C111.562 22.9412 112.068 23.0279 112.543 23.2014C113.022 23.371 113.445 23.635 113.811 23.9932C114.181 24.3514 114.472 24.8077 114.683 25.362C114.894 25.9125 115 26.5686 115 27.3303V27.9581H107.873V26.5781H113.036C113.032 26.1859 112.947 25.8371 112.781 25.5317C112.615 25.2225 112.383 24.9793 112.085 24.802C111.79 24.6248 111.447 24.5362 111.054 24.5362C110.635 24.5362 110.267 24.638 109.95 24.8416C109.633 25.0415 109.386 25.3054 109.209 25.6335C109.035 25.9578 108.946 26.3141 108.943 26.7025V27.9072C108.943 28.4125 109.035 28.8462 109.22 29.2081C109.405 29.5664 109.663 29.8416 109.996 30.0339C110.328 30.2225 110.716 30.3167 111.162 30.3167C111.46 30.3167 111.73 30.2753 111.971 30.1923C112.213 30.1056 112.422 29.9793 112.6 29.8133C112.777 29.6474 112.911 29.4419 113.002 29.1968L114.915 29.4118C114.794 29.917 114.564 30.3582 114.224 30.7353C113.889 31.1086 113.458 31.3989 112.934 31.6063C112.409 31.81 111.809 31.9118 111.133 31.9118Z" fill="white"/>
</svg>
