<svg width="125" height="37" viewBox="0 0 125 37" fill="none" xmlns="http://www.w3.org/2000/svg">
<g clip-path="url(#clip0_920_13398)">
<g clip-path="url(#clip1_920_13398)">
<path d="M119.804 36.9062H4.75433C2.22324 36.9062 0.152344 34.8354 0.152344 32.3043V4.69232C0.152344 2.16122 2.22324 0.0903282 4.75433 0.0903282H119.804C122.335 0.0903282 124.406 2.16122 124.406 4.69232V32.3043C124.406 34.8354 122.335 36.9062 119.804 36.9062Z" fill="#C9C74D"/>
<path d="M119.804 0.0903282H4.75433C2.22324 0.0903282 0.152344 2.16122 0.152344 4.69232V32.3043C0.152344 34.8354 2.22324 36.9062 4.75433 36.9062H119.804C122.335 36.9062 124.406 34.8354 124.406 32.3043V4.69232C124.406 2.16122 122.335 0.0903282 119.804 0.0903282ZM119.804 0.826649C121.936 0.826649 123.67 2.56105 123.67 4.69232V32.3043C123.67 34.4359 121.936 36.1703 119.804 36.1703H4.75433C2.62306 36.1703 0.888662 34.4359 0.888662 32.3043V4.69232C0.888662 2.56105 2.62306 0.826649 4.75433 0.826649H119.804Z" fill="black"/>
<path d="M19.1269 17.8769L9.32812 28.2772C9.32849 28.2794 9.32923 28.2812 9.3296 28.2833C9.6301 29.4126 10.6616 30.2441 11.8858 30.2441C12.3751 30.2441 12.8346 30.1118 13.2286 29.8796L13.2599 29.8612L24.2896 23.4967L19.1269 17.8769Z" fill="#EB3131"/>
<path d="M29.0422 16.1065L29.0329 16.1001L24.271 13.3396L18.9062 18.1134L24.2897 23.4961L29.0264 20.763C29.8569 20.3147 30.4206 19.4393 30.4206 18.4297C30.4206 17.4274 29.8644 16.5563 29.0422 16.1065Z" fill="#F6B60B"/>
<path d="M9.32815 8.53814C9.26924 8.75534 9.23828 8.98286 9.23828 9.21912V27.5968C9.23828 27.8326 9.26887 28.0609 9.32851 28.2773L19.4645 18.1432L9.32815 8.53814Z" fill="#5778C5"/>
<path d="M19.1995 18.4082L24.2713 13.3379L13.2541 6.95027C12.8536 6.71042 12.3863 6.572 11.8861 6.572C10.6619 6.572 9.62909 7.40503 9.32849 8.53571C9.32812 8.53681 9.32813 8.53755 9.32813 8.53856L19.1995 18.4082Z" fill="#3BAD49"/>
</g>
<path d="M43.8296 9.52114C43.8296 10.2922 43.6012 10.9063 43.1439 11.3644C42.6244 11.9091 41.9474 12.1816 41.1151 12.1816C40.318 12.1816 39.6403 11.9055 39.083 11.3525C38.5247 10.7999 38.2461 10.1147 38.2461 9.29711C38.2461 8.47916 38.5247 7.79429 39.083 7.24131C39.6403 6.6887 40.318 6.41222 41.1151 6.41222C41.5106 6.41222 41.8892 6.48953 42.2487 6.64379C42.6082 6.79842 42.8966 7.00366 43.1123 7.26073L42.6269 7.74643C42.2613 7.30961 41.758 7.09138 41.1151 7.09138C40.5337 7.09138 40.0311 7.29562 39.6069 7.70436C39.1826 8.11357 38.9705 8.64418 38.9705 9.29711C38.9705 9.95004 39.1826 10.4807 39.6069 10.8899C40.0311 11.2986 40.5337 11.5028 41.1151 11.5028C41.7317 11.5028 42.2459 11.2975 42.6575 10.8863C42.9247 10.6183 43.0792 10.246 43.1205 9.76771H41.1151V9.10438H43.7911C43.817 9.24861 43.8296 9.38703 43.8296 9.52114Z" fill="black"/>
<path d="M43.8318 9.52089H43.7398C43.739 10.2744 43.5189 10.8597 43.081 11.2991L43.08 11.2998L43.0796 11.3006C42.5766 11.8265 41.9302 12.0883 41.1173 12.0894C40.3415 12.0883 39.6921 11.8236 39.1499 11.2872C38.6089 10.7497 38.3413 10.0936 38.3403 9.29687C38.3413 8.4998 38.6089 7.84402 39.1499 7.30688C39.6921 6.7701 40.3415 6.50512 41.1173 6.50401C41.5009 6.50401 41.8662 6.57884 42.2146 6.72804C42.5633 6.87834 42.8388 7.0753 43.044 7.31985L43.1145 7.26049L43.0495 7.19542L42.564 7.68148L42.6291 7.74618L42.7 7.68728C42.3174 7.22883 41.7803 6.99772 41.1173 6.9991C40.5144 6.99836 39.9841 7.21373 39.5454 7.63804C39.1025 8.06372 38.88 8.62415 38.8807 9.29687C38.88 9.96959 39.1025 10.53 39.5454 10.9557C39.9841 11.38 40.5144 11.5954 41.1173 11.5946C41.7544 11.5957 42.2973 11.3796 42.7247 10.9511C43.0102 10.6649 43.1721 10.2683 43.2145 9.77538L43.223 9.67543H41.2093V9.19618H43.7933V9.10414L43.7027 9.12034C43.7279 9.25987 43.7398 9.3925 43.7398 9.52089H43.8318H43.9238C43.9238 9.38099 43.9109 9.23723 43.8839 9.08766L43.8703 9.0121H41.0252V9.76747V9.85951H43.1227V9.76747L43.031 9.75955C42.9905 10.2227 42.843 10.5714 42.5946 10.821C42.1991 11.215 41.7138 11.4095 41.1173 11.4106C40.5575 11.4098 40.0826 11.2171 39.6731 10.8234C39.2675 10.4312 39.0658 9.93038 39.0648 9.29687C39.0658 8.66336 39.2675 8.16257 39.6731 7.7703C40.0826 7.37664 40.5575 7.18391 41.1173 7.18318C41.7396 7.18465 42.2096 7.39026 42.5587 7.80555L42.6234 7.88249L43.1796 7.32556L43.2392 7.26592L43.1849 7.20149C42.9588 6.93191 42.6575 6.71791 42.2872 6.55905C41.9162 6.39973 41.5246 6.31993 41.1173 6.31993C40.299 6.3192 39.5929 6.60682 39.0201 7.176C38.4453 7.74407 38.1555 8.45811 38.1563 9.29687C38.1555 10.1353 38.4453 10.8497 39.0205 11.4181C39.5929 11.9869 40.299 12.2742 41.1173 12.2734C41.9694 12.2742 42.6762 11.9912 43.2126 11.4278L43.1461 11.3642L43.2112 11.4292C43.6879 10.9528 43.9245 10.3093 43.9238 9.52089H43.8318Z" fill="black"/>
<path d="M48.0754 7.21463H45.5605V8.96559H47.8285V9.6292H45.5605V11.3802H48.0754V12.0586H44.8516V6.5362H48.0754V7.21463Z" fill="black"/>
<path d="M48.0737 7.21439V7.12235H45.4668V9.05739H47.7347V9.53664L45.4668 9.53692V11.472H47.9817V11.9663H44.9419V6.628H47.9817V7.21439H48.0737V7.12235V7.21439H48.1658V6.53596V6.44392H44.7578V12.1504H48.1658V11.3799V11.2879H45.6509V9.721H47.9188V8.96535V8.87331H45.6509V7.30643H48.1658V7.21439H48.0737Z" fill="black"/>
<path d="M51.065 12.0586H50.3549V7.21463H48.8125V6.5362H52.6074V7.21463H51.065V12.0586Z" fill="black"/>
<path d="M51.0672 12.0584V11.9663H50.4491V7.12235H48.9067V6.628H52.5176V7.12235H50.9752V12.0584H51.0672V11.9663V12.0584H51.1592V7.30643H52.7016V6.53596V6.44392H48.7227V7.21439V7.30643H50.2651V12.1504H51.0672H51.1592V12.0584H51.0672Z" fill="black"/>
<path d="M55.3555 12.0586V6.5362H56.0648V12.0586H55.3555Z" fill="black"/>
<path d="M55.3538 12.0584H55.4458V6.628H55.9711V11.9663H55.3538V12.0584H55.4458H55.3538V12.1504H56.0631H56.1551V6.44392H55.3538H55.2617V12.1504H55.3538V12.0584Z" fill="black"/>
<path d="M59.2133 12.0586H58.5033V7.21463H56.9609V6.5362H60.7557V7.21463H59.2133V12.0586Z" fill="black"/>
<path d="M59.2116 12.0584V11.9663H58.5936V7.12235H57.0513V6.628H60.662V7.12235H59.1196V12.0584H59.2116V11.9663V12.0584H59.3037V7.30643H60.8461V6.53596V6.44392H56.8672V7.21439V7.30643H58.4095V12.1504H59.2116H59.3037V12.0584H59.2116Z" fill="black"/>
<path d="M64.4116 10.8823C64.8204 11.2961 65.3205 11.5028 65.912 11.5028C66.5034 11.5028 67.0038 11.2961 67.412 10.8823C67.8211 10.4685 68.026 9.93955 68.026 9.29711C68.026 8.65468 67.8211 8.12572 67.412 7.71191C67.0038 7.2981 66.5034 7.09138 65.912 7.09138C65.3205 7.09138 64.8204 7.2981 64.4116 7.71191C64.0035 8.12572 63.7987 8.65468 63.7987 9.29711C63.7987 9.93955 64.0035 10.4685 64.4116 10.8823ZM67.9369 11.3446C67.3939 11.9029 66.7187 12.1816 65.912 12.1816C65.1044 12.1816 64.4296 11.9029 63.8878 11.3446C63.3445 10.787 63.0742 10.1043 63.0742 9.29711C63.0742 8.48992 63.3445 7.80717 63.8878 7.24959C64.4296 6.69119 65.1044 6.41222 65.912 6.41222C66.7145 6.41222 67.3878 6.69266 67.9333 7.25318C68.478 7.81371 68.7505 8.49499 68.7505 9.29711C68.7505 10.1043 68.4786 10.787 67.9369 11.3446Z" fill="black"/>
<path d="M64.4138 10.8821L64.3484 10.9468C64.7723 11.3772 65.3012 11.5957 65.9142 11.5946C66.5268 11.5957 67.0564 11.3772 67.4796 10.9468C67.9063 10.516 68.1209 9.95873 68.1203 9.29687C68.1209 8.63501 67.9063 8.07771 67.4796 7.64696C67.0564 7.21659 66.5268 6.99799 65.9142 6.9991C65.3012 6.99799 64.7723 7.21659 64.3484 7.64696C63.9227 8.07771 63.7077 8.63501 63.7088 9.29687C63.7077 9.95873 63.9227 10.516 64.3484 10.9468L64.4138 10.8821L64.4793 10.8174C64.0889 10.42 63.8936 9.92025 63.8929 9.29687C63.8936 8.67348 64.0889 8.17371 64.4793 7.77637C64.8733 7.37913 65.3439 7.18428 65.9142 7.18318C66.484 7.18428 66.9557 7.37913 67.3487 7.77637C67.7399 8.17371 67.9351 8.67348 67.9358 9.29687C67.9351 9.92025 67.7399 10.42 67.3487 10.8174C66.9557 11.2146 66.484 11.4095 65.9142 11.4106C65.3439 11.4095 64.8733 11.2146 64.4793 10.8174L64.4138 10.8821ZM67.9391 11.3444L67.8732 11.2804C67.3455 11.8212 66.7001 12.0883 65.9142 12.0894C65.1279 12.0883 64.4825 11.8212 63.9558 11.2804L63.9533 11.2776L63.9558 11.2804C63.4291 10.7378 63.1692 10.0835 63.1685 9.29687C63.1692 8.51021 63.4291 7.85589 63.9558 7.31332C64.4825 6.77259 65.1279 6.50512 65.9142 6.50401C66.695 6.50512 67.339 6.77369 67.8697 7.31728C68.3982 7.86234 68.6595 8.51564 68.6606 9.29687C68.6595 10.0835 68.3989 10.7378 67.8732 11.2804L67.9391 11.3444L68.0052 11.4084C68.5632 10.8353 68.8454 10.1245 68.8447 9.29687C68.8454 8.47394 68.5621 7.76459 68.0015 7.18897C67.4408 6.61115 66.7382 6.31892 65.9142 6.31993C65.0858 6.31892 64.3812 6.60977 63.8239 7.18538V7.18502C63.2648 7.75842 62.9836 8.46925 62.9844 9.29687C62.9836 10.1245 63.2648 10.8353 63.8239 11.4087L63.8264 11.4113L63.8239 11.4084C64.3812 11.984 65.0858 12.2742 65.9142 12.2734C66.7422 12.2742 67.4468 11.984 68.0052 11.4084L67.9391 11.3444Z" fill="black"/>
<path d="M69.7461 12.0586V6.5362H70.6097L73.2936 10.8323H73.3241L73.2936 9.768V6.5362H74.0037V12.0586H73.263L70.4551 7.55435H70.4245L70.4551 8.61897V12.0586H69.7461Z" fill="black"/>
<path d="M69.7483 12.0584H69.8403V6.628H70.5608L73.2447 10.9241H73.3263H73.4209L73.3878 9.76638V6.628H73.9138V11.9663H73.3163L70.5084 7.46207H70.4267H70.3322L70.3652 8.6202V11.9663H69.7483V12.0584H69.8403H69.7483V12.1504H70.4573H70.5493V8.61726L70.5188 7.55162L70.4267 7.55411V7.64615H70.4573V7.55411L70.3792 7.60307L73.2141 12.1504H74.0059H74.0979V6.44392H73.2958H73.2037V9.76886L73.2343 10.8345L73.3263 10.832V10.74H73.2958V10.832L73.3738 10.7831L70.6629 6.44392H69.7483H69.6562V12.1504H69.7483V12.0584Z" fill="black"/>
<path d="M39 27.7421V16.1584H43.3477C44.2384 16.1584 44.9856 16.3243 45.5895 16.6561C46.1971 16.9879 46.6557 17.4442 46.9651 18.0249C47.2784 18.6018 47.435 19.2579 47.435 19.9932C47.435 20.736 47.2784 21.3959 46.9651 21.9729C46.6519 22.5498 46.1896 23.0041 45.5782 23.336C44.9668 23.664 44.2139 23.8281 43.3194 23.8281H40.4379V22.1029H43.0364C43.5572 22.1029 43.9836 22.0124 44.3158 21.8314C44.6479 21.6505 44.8932 21.4016 45.0517 21.0848C45.214 20.7681 45.2951 20.4042 45.2951 19.9932C45.2951 19.5822 45.214 19.2202 45.0517 18.9072C44.8932 18.5943 44.646 18.3511 44.3101 18.1776C43.978 18.0004 43.5496 17.9118 43.025 17.9118H41.1003V27.7421H39Z" fill="black"/>
<path d="M51.218 16.1584V27.7421H49.1687V16.1584H51.218Z" fill="black"/>
<path d="M55.8276 27.9174C55.2765 27.9174 54.7803 27.8194 54.3387 27.6233C53.9009 27.4235 53.5537 27.1293 53.2971 26.741C53.0442 26.3526 52.9178 25.8737 52.9178 25.3043C52.9178 24.8141 53.0083 24.4087 53.1895 24.0882C53.3707 23.7677 53.6179 23.5113 53.9311 23.319C54.2443 23.1267 54.5972 22.9815 54.9897 22.8835C55.386 22.7817 55.7955 22.7081 56.2182 22.6629C56.7277 22.6101 57.1409 22.563 57.458 22.5215C57.775 22.4762 58.0052 22.4084 58.1486 22.3179C58.2958 22.2236 58.3694 22.0784 58.3694 21.8824V21.8484C58.3694 21.4223 58.243 21.0924 57.9901 20.8586C57.7372 20.6248 57.373 20.5079 56.8975 20.5079C56.3956 20.5079 55.9974 20.6173 55.703 20.836C55.4124 21.0547 55.2162 21.313 55.1143 21.6109L53.2008 21.3394C53.3518 20.8115 53.6009 20.3703 53.9481 20.0158C54.2953 19.6576 54.7199 19.3899 55.2218 19.2127C55.7238 19.0317 56.2786 18.9412 56.8862 18.9412C57.3051 18.9412 57.7221 18.9902 58.1373 19.0882C58.5524 19.1863 58.9317 19.3484 59.2752 19.5747C59.6186 19.7971 59.8941 20.1007 60.1017 20.4853C60.313 20.8699 60.4187 21.3507 60.4187 21.9276V27.7421H58.4486V26.5486H58.3807C58.2562 26.79 58.0807 27.0162 57.8542 27.2274C57.6316 27.4348 57.3504 27.6026 57.0107 27.7308C56.6748 27.8552 56.2804 27.9174 55.8276 27.9174ZM56.3597 26.4129C56.7711 26.4129 57.1277 26.3318 57.4296 26.1697C57.7316 26.0038 57.9637 25.7851 58.126 25.5136C58.292 25.2421 58.375 24.9461 58.375 24.6256V23.6018C58.3109 23.6546 58.2014 23.7036 58.0467 23.7489C57.8957 23.7941 57.7259 23.8337 57.5372 23.8676C57.3485 23.9016 57.1617 23.9317 56.9768 23.9581C56.7918 23.9845 56.6314 24.0072 56.4956 24.026C56.1899 24.0675 55.9163 24.1354 55.6747 24.2296C55.4332 24.3239 55.2426 24.4559 55.1029 24.6256C54.9633 24.7915 54.8935 25.0064 54.8935 25.2704C54.8935 25.6474 55.0312 25.9321 55.3067 26.1244C55.5822 26.3167 55.9332 26.4129 56.3597 26.4129Z" fill="black"/>
<path d="M63.4417 31C63.1624 31 62.9039 30.9774 62.6661 30.9321C62.4322 30.8906 62.2453 30.8416 62.1057 30.7851L62.5812 29.19C62.8794 29.2768 63.1454 29.3182 63.3794 29.3145C63.6134 29.3107 63.8191 29.2372 63.9965 29.0939C64.1777 28.9544 64.3305 28.7206 64.455 28.3925L64.6305 27.9231L61.4773 19.0543H63.6512L65.6552 25.6154H65.7458L67.7555 19.0543H69.935L66.4534 28.7941C66.2911 29.2541 66.076 29.6482 65.808 29.9762C65.5401 30.3081 65.2117 30.5607 64.823 30.7342C64.4381 30.9114 63.9776 31 63.4417 31Z" fill="black"/>
<path d="M81.6987 19.3428C81.6459 18.8488 81.4232 18.4642 81.0307 18.1889C80.642 17.9137 80.1362 17.776 79.5135 17.776C79.0757 17.776 78.7002 17.842 78.387 17.974C78.0737 18.106 77.8341 18.2851 77.668 18.5113C77.5019 18.7376 77.417 18.9959 77.4133 19.2862C77.4133 19.5275 77.468 19.7368 77.5774 19.914C77.6907 20.0913 77.8435 20.2421 78.036 20.3665C78.2285 20.4872 78.4417 20.589 78.6757 20.6719C78.9097 20.7549 79.1455 20.8247 79.3833 20.8812L80.4702 21.1527C80.908 21.2545 81.3288 21.3922 81.7327 21.5656C82.1403 21.7391 82.5045 21.9578 82.8252 22.2217C83.1498 22.4857 83.4065 22.8043 83.5952 23.1776C83.7839 23.5509 83.8782 23.9883 83.8782 24.4898C83.8782 25.1686 83.7046 25.7662 83.3574 26.2828C83.0102 26.7956 82.5082 27.1972 81.8515 27.4876C81.1986 27.7741 80.408 27.9174 79.4796 27.9174C78.5776 27.9174 77.7944 27.7779 77.1302 27.4989C76.4697 27.2198 75.9527 26.8126 75.5791 26.2771C75.2092 25.7417 75.0092 25.0894 74.979 24.3201H77.0453C77.0755 24.7236 77.2 25.0592 77.4189 25.3269C77.6378 25.5946 77.9228 25.7945 78.2737 25.9265C78.6285 26.0584 79.0248 26.1244 79.4626 26.1244C79.9192 26.1244 80.3193 26.0566 80.6627 25.9208C81.0099 25.7813 81.2817 25.589 81.4779 25.3439C81.6742 25.095 81.7742 24.8047 81.778 24.4729C81.7742 24.1712 81.6855 23.9223 81.5119 23.7262C81.3383 23.5264 81.0948 23.3605 80.7816 23.2285C80.4721 23.0928 80.1098 22.9721 79.6947 22.8665L78.3756 22.5271C77.4208 22.2821 76.666 21.9106 76.1112 21.4129C75.5602 20.9114 75.2847 20.2459 75.2847 19.4163C75.2847 18.7338 75.4696 18.1361 75.8395 17.6233C76.2131 17.1105 76.7207 16.7127 77.3623 16.4299C78.0039 16.1433 78.7304 16 79.5418 16C80.3646 16 81.0854 16.1433 81.7044 16.4299C82.3271 16.7127 82.8158 17.1067 83.1706 17.612C83.5253 18.1135 83.7084 18.6904 83.7197 19.3428H81.6987Z" fill="black"/>
<path d="M90.0021 19.0543V20.638H85.0034V19.0543H90.0021ZM86.2375 16.9729H88.2868V25.129C88.2868 25.4042 88.3283 25.6154 88.4113 25.7624C88.4981 25.9057 88.6113 26.0038 88.751 26.0566C88.8906 26.1094 89.0454 26.1357 89.2152 26.1357C89.3435 26.1357 89.4605 26.1263 89.5662 26.1075C89.6756 26.0886 89.7587 26.0716 89.8153 26.0566L90.1606 27.6572C90.0511 27.6949 89.8945 27.7364 89.6907 27.7817C89.4907 27.8269 89.2454 27.8533 88.9548 27.8609C88.4415 27.8759 87.9792 27.7986 87.5678 27.629C87.1564 27.4555 86.83 27.1878 86.5885 26.8258C86.3507 26.4638 86.2337 26.0113 86.2375 25.4683V16.9729Z" fill="black"/>
<path d="M95.4155 27.9118C94.5663 27.9118 93.8304 27.7251 93.2077 27.3518C92.585 26.9785 92.1019 26.4563 91.7584 25.7851C91.4188 25.1139 91.2489 24.3296 91.2489 23.4321C91.2489 22.5347 91.4188 21.7485 91.7584 21.0735C92.1019 20.3986 92.585 19.8744 93.2077 19.5011C93.8304 19.1278 94.5663 18.9412 95.4155 18.9412C96.2647 18.9412 97.0006 19.1278 97.6233 19.5011C98.246 19.8744 98.7272 20.3986 99.0669 21.0735C99.4103 21.7485 99.582 22.5347 99.582 23.4321C99.582 24.3296 99.4103 25.1139 99.0669 25.7851C98.7272 26.4563 98.246 26.9785 97.6233 27.3518C97.0006 27.7251 96.2647 27.9118 95.4155 27.9118ZM95.4268 26.2715C95.8872 26.2715 96.2722 26.1452 96.5817 25.8925C96.8911 25.6361 97.1214 25.293 97.2723 24.8631C97.4271 24.4333 97.5044 23.9544 97.5044 23.4265C97.5044 22.8948 97.4271 22.414 97.2723 21.9842C97.1214 21.5505 96.8911 21.2055 96.5817 20.9491C96.2722 20.6927 95.8872 20.5645 95.4268 20.5645C94.9551 20.5645 94.5626 20.6927 94.2493 20.9491C93.9398 21.2055 93.7077 21.5505 93.553 21.9842C93.402 22.414 93.3266 22.8948 93.3266 23.4265C93.3266 23.9544 93.402 24.4333 93.553 24.8631C93.7077 25.293 93.9398 25.6361 94.2493 25.8925C94.5626 26.1452 94.9551 26.2715 95.4268 26.2715Z" fill="black"/>
<path d="M101.321 27.7421V19.0543H103.308V20.5023H103.399C103.558 20.0008 103.829 19.6143 104.214 19.3428C104.603 19.0675 105.046 18.9299 105.545 18.9299C105.658 18.9299 105.784 18.9355 105.924 18.9468C106.067 18.9544 106.186 18.9676 106.281 18.9864V20.8699C106.194 20.8397 106.056 20.8133 105.867 20.7907C105.682 20.7643 105.503 20.7511 105.329 20.7511C104.956 20.7511 104.62 20.8322 104.322 20.9943C104.027 21.1527 103.795 21.3733 103.625 21.6561C103.456 21.9389 103.371 22.2651 103.371 22.6346V27.7421H101.321Z" fill="black"/>
<path d="M111.133 27.9118C110.262 27.9118 109.509 27.7308 108.875 27.3688C108.244 27.003 107.759 26.4864 107.42 25.819C107.08 25.1478 106.91 24.3578 106.91 23.4491C106.91 22.5554 107.08 21.7711 107.42 21.0962C107.763 20.4174 108.243 19.8895 108.858 19.5124C109.473 19.1316 110.196 18.9412 111.026 18.9412C111.562 18.9412 112.068 19.0279 112.543 19.2014C113.022 19.371 113.445 19.635 113.811 19.9932C114.181 20.3514 114.472 20.8077 114.683 21.362C114.894 21.9125 115 22.5686 115 23.3303V23.9581H107.873V22.5781H113.036C113.032 22.1859 112.947 21.8371 112.781 21.5317C112.615 21.2225 112.383 20.9793 112.085 20.802C111.79 20.6248 111.447 20.5362 111.054 20.5362C110.635 20.5362 110.267 20.638 109.95 20.8416C109.633 21.0415 109.386 21.3054 109.209 21.6335C109.035 21.9578 108.946 22.3141 108.943 22.7025V23.9072C108.943 24.4125 109.035 24.8462 109.22 25.2081C109.405 25.5664 109.663 25.8416 109.996 26.0339C110.328 26.2225 110.716 26.3167 111.162 26.3167C111.46 26.3167 111.73 26.2753 111.971 26.1923C112.213 26.1056 112.422 25.9793 112.6 25.8133C112.777 25.6474 112.911 25.4419 113.002 25.1968L114.915 25.4118C114.794 25.917 114.564 26.3582 114.224 26.7353C113.889 27.1086 113.458 27.3989 112.934 27.6063C112.409 27.81 111.809 27.9118 111.133 27.9118Z" fill="black"/>
</g>
<defs>
<clipPath id="clip0_920_13398">
<rect width="124.53" height="37" fill="white"/>
</clipPath>
<clipPath id="clip1_920_13398">
<rect width="124.53" height="37" fill="white" transform="translate(0.0585938)"/>
</clipPath>
</defs>
</svg>
