<svg width="112" height="37" viewBox="0 0 112 37" fill="none" xmlns="http://www.w3.org/2000/svg">
<g clip-path="url(#clip0_196_21166)">
<path d="M102.406 0.00012025H9.35083C9.01163 0.00012025 8.6765 0.00012025 8.3382 0.00197025C8.05502 0.00382025 7.77408 0.0091945 7.48818 0.0137177C6.86705 0.0210269 6.24739 0.0756708 5.63457 0.177174C5.02261 0.280888 4.42982 0.476417 3.87625 0.757149C3.32336 1.04026 2.81817 1.40813 2.379 1.84741C1.93753 2.28546 1.56953 2.79179 1.28915 3.34692C1.008 3.90095 0.813042 4.49464 0.711024 5.10749C0.608035 5.71957 0.552616 6.3387 0.545264 6.95934C0.53668 7.24294 0.535773 7.52749 0.53125 7.81113V29.1918C0.535773 29.479 0.53668 29.7573 0.545264 30.0446C0.552618 30.6652 0.608037 31.2843 0.711024 31.8963C0.812761 32.5095 1.00773 33.1036 1.28915 33.6578C1.5694 34.2112 1.93745 34.7154 2.379 35.151C2.8165 35.5923 3.32202 35.9604 3.87625 36.2413C4.42982 36.5228 5.02254 36.7195 5.63457 36.8248C6.24749 36.9255 6.86709 36.9802 7.48818 36.9884C7.77408 36.9947 8.05502 36.9983 8.3382 36.9983C8.6765 37.0001 9.01165 37.0001 9.35083 37.0001H102.406C102.738 37.0001 103.076 37.0001 103.409 36.9983C103.69 36.9983 103.98 36.9947 104.261 36.9884C104.881 36.9806 105.5 36.926 106.111 36.8248C106.725 36.7188 107.32 36.5221 107.876 36.2413C108.43 35.9602 108.935 35.5921 109.372 35.151C109.813 34.7137 110.182 34.2098 110.465 33.6578C110.745 33.1032 110.938 32.5092 111.038 31.8963C111.141 31.2842 111.199 30.6652 111.21 30.0446C111.213 29.7573 111.213 29.479 111.213 29.1918C111.221 28.8558 111.221 28.5216 111.221 28.1801V8.82104C111.221 8.4823 111.221 8.14626 111.213 7.81113C111.213 7.52749 111.213 7.24294 111.21 6.9593C111.199 6.33861 111.141 5.71961 111.038 5.10745C110.937 4.49496 110.744 3.90131 110.465 3.34688C109.894 2.23418 108.989 1.32844 107.876 0.757066C107.32 0.47702 106.725 0.281543 106.111 0.177091C105.5 0.0751403 104.881 0.0204774 104.261 0.0135882C103.98 0.00907425 103.69 0.00365375 103.409 0.00185C103.076 0 102.738 0 102.406 0V0.00012025Z" fill="black"/>
<path d="M8.34378 36.1898C8.06195 36.1898 7.78693 36.1862 7.50731 36.1799C6.92806 36.1724 6.35016 36.122 5.77835 36.0291C5.24518 35.9373 4.72867 35.7664 4.24587 35.5223C3.7675 35.2801 3.33119 34.9626 2.95365 34.5819C2.57064 34.2057 2.25177 33.7693 2.00967 33.2902C1.76491 32.8078 1.59552 32.2909 1.5074 31.7572C1.41224 31.1839 1.36075 30.6041 1.35339 30.0229C1.34752 29.8278 1.33984 29.1783 1.33984 29.1783V7.81023C1.33984 7.81023 1.34802 7.17068 1.35343 6.98278C1.36049 6.40251 1.41167 5.82362 1.50655 5.25112C1.59483 4.71603 1.76435 4.19756 2.00925 3.71368C2.25046 3.23482 2.56755 2.79814 2.94825 2.42057C3.32852 2.03942 3.76623 1.72028 4.24542 1.47479C4.72711 1.23141 5.24264 1.0618 5.77474 0.971644C6.34842 0.877817 6.92833 0.82709 7.50958 0.819888L8.34423 0.808594H103.405L104.25 0.820341C104.826 0.827186 105.4 0.87746 105.969 0.970737C106.506 1.06202 107.027 1.23281 107.514 1.4775C108.474 1.97223 109.255 2.75494 109.748 3.71593C109.989 4.19648 110.156 4.71071 110.243 5.24118C110.339 5.81839 110.393 6.40183 110.404 6.98685C110.407 7.24881 110.407 7.5302 110.407 7.81023C110.414 8.15711 110.414 8.48727 110.414 8.82014V28.1792C110.414 28.5152 110.414 28.8431 110.407 29.1737C110.407 29.4745 110.407 29.7501 110.403 30.0337C110.392 30.6083 110.34 31.1813 110.245 31.7482C110.159 32.2857 109.99 32.8067 109.746 33.2929C109.502 33.7669 109.185 34.1995 108.806 34.5747C108.428 34.9575 107.991 35.2768 107.512 35.5205C107.026 35.7666 106.506 35.938 105.969 36.0291C105.397 36.1225 104.819 36.1729 104.24 36.1799C103.969 36.1862 103.685 36.1898 103.41 36.1898L102.407 36.1917L8.34378 36.1898Z" fill="#C9C74D"/>
<path d="M23.6476 18.3972C23.658 17.5943 23.8712 16.8071 24.2676 16.1088C24.6639 15.4105 25.2304 14.8238 25.9144 14.4033C25.4799 13.7827 24.9067 13.272 24.2402 12.9117C23.5738 12.5514 22.8325 12.3515 22.0753 12.3278C20.46 12.1582 18.8941 13.2943 18.071 13.2943C17.232 13.2943 15.9647 12.3446 14.6 12.3727C13.7172 12.4012 12.857 12.6579 12.103 13.1178C11.3489 13.5776 10.7269 14.2249 10.2974 14.9967C8.43717 18.2175 9.82477 22.9511 11.6068 25.5546C12.4984 26.8295 13.5404 28.2535 14.9038 28.203C16.2381 28.1477 16.7364 27.3522 18.3469 27.3522C19.9424 27.3522 20.41 28.203 21.8011 28.1709C23.2328 28.1477 24.1348 26.8904 24.9951 25.6035C25.6357 24.6951 26.1287 23.6911 26.4557 22.6288C25.6239 22.277 24.9141 21.6881 24.4148 20.9356C23.9154 20.1831 23.6486 19.3003 23.6476 18.3972Z" fill="black"/>
<path d="M21.0213 10.6155C21.8019 9.67837 22.1865 8.47389 22.0934 7.25781C20.9008 7.38307 19.7991 7.95306 19.008 8.8542C18.6212 9.29443 18.3249 9.80658 18.1361 10.3614C17.9474 10.9162 17.8698 11.5027 17.9079 12.0875C18.5044 12.0937 19.0945 11.9644 19.6338 11.7094C20.1731 11.4544 20.6475 11.0804 21.0213 10.6155Z" fill="black"/>
<path d="M39.6594 25.1046H35.281L34.2295 28.2093H32.375L36.5221 16.7227H38.4489L42.5961 28.2093H40.7099L39.6594 25.1046ZM35.7345 23.6719H39.205L37.4942 18.6332H37.4462L35.7345 23.6719Z" fill="black"/>
<path d="M51.5528 24.0231C51.5528 26.6255 50.1599 28.2976 48.0578 28.2976C47.5254 28.3254 46.9958 28.2028 46.5298 27.9436C46.0638 27.6845 45.6802 27.2994 45.4229 26.8324H45.3831V30.9804H43.6641V19.8353H45.328V21.2282H45.3596C45.6287 20.7634 46.0188 20.3803 46.4884 20.1196C46.9579 19.8589 47.4894 19.7303 48.0262 19.7476C50.1517 19.7476 51.5528 21.4278 51.5528 24.0231ZM49.7859 24.0231C49.7859 22.3275 48.9097 21.2128 47.5728 21.2128C46.2593 21.2128 45.3759 22.351 45.3759 24.0231C45.3759 25.7105 46.2593 26.8405 47.5728 26.8405C48.9097 26.8405 49.7859 25.7339 49.7859 24.0231H49.7859Z" fill="black"/>
<path d="M60.772 24.0231C60.772 26.6255 59.3786 28.2976 57.2766 28.2976C56.7441 28.3254 56.2145 28.2028 55.7485 27.9436C55.2825 27.6845 54.8989 27.2994 54.6416 26.8324H54.6018V30.9804H52.8828V19.8353H54.5467V21.2282H54.5783C54.8475 20.7634 55.2376 20.3803 55.7071 20.1196C56.1767 19.8589 56.7081 19.7303 57.2449 19.7476C59.3705 19.7476 60.772 21.4278 60.772 24.0231ZM59.0046 24.0231C59.0046 22.3275 58.1284 21.2128 56.7915 21.2128C55.4781 21.2128 54.5946 22.351 54.5946 24.0231C54.5946 25.7105 55.4781 26.8405 56.7915 26.8405C58.1284 26.8405 59.0046 25.7339 59.0046 24.0231Z" fill="black"/>
<path d="M66.8613 25.009C66.9886 26.1481 68.0952 26.896 69.6074 26.896C71.0563 26.896 72.0987 26.148 72.0987 25.1209C72.0987 24.2294 71.47 23.6955 69.9813 23.3296L68.4927 22.971C66.3834 22.4616 65.4042 21.4751 65.4042 19.8744C65.4042 17.8926 67.1314 16.5312 69.583 16.5312C72.0111 16.5312 73.675 17.8926 73.731 19.8744H71.9957C71.8919 18.7281 70.9443 18.0362 69.5595 18.0362C68.1747 18.0362 67.2271 18.7363 67.2271 19.7552C67.2271 20.5673 67.8323 21.0451 69.3129 21.411L70.5784 21.7217C72.9352 22.2791 73.9135 23.2258 73.9135 24.9059C73.9135 27.0549 72.2026 28.4008 69.48 28.4008C66.9326 28.4008 65.2127 27.0865 65.1016 25.0089L66.8613 25.009Z" fill="black"/>
<path d="M77.6245 17.8535V19.8354H79.2171V21.1967H77.6245V25.8136C77.6245 26.5308 77.9434 26.865 78.6435 26.865C78.8325 26.8617 79.0213 26.8485 79.2089 26.8253V28.1784C78.8942 28.2373 78.5743 28.2639 78.2541 28.2579C76.5586 28.2579 75.8974 27.6211 75.8974 25.9969V21.1967H74.6797V19.8354H75.8973V17.8535H77.6245Z" fill="black"/>
<path d="M80.1406 24.0232C80.1406 21.3882 81.6925 19.7324 84.1125 19.7324C86.5406 19.7324 88.0853 21.3882 88.0853 24.0232C88.0853 26.6654 86.5488 28.314 84.1125 28.314C81.6772 28.314 80.1406 26.6654 80.1406 24.0232ZM86.3338 24.0232C86.3338 22.2156 85.5054 21.1488 84.1125 21.1488C82.7196 21.1488 81.8913 22.2238 81.8913 24.0232C81.8913 25.838 82.7196 26.8967 84.1125 26.8967C85.5054 26.8967 86.3338 25.838 86.3338 24.0232H86.3338Z" fill="black"/>
<path d="M89.5 19.8352H91.1395V21.2606H91.1793C91.2902 20.8154 91.551 20.422 91.9179 20.1464C92.2847 19.8709 92.7352 19.73 93.1937 19.7475C93.3918 19.7469 93.5894 19.7684 93.7827 19.8117V21.4196C93.5326 21.3432 93.2717 21.3081 93.0103 21.3157C92.7606 21.3056 92.5116 21.3496 92.2805 21.4448C92.0494 21.54 91.8416 21.684 91.6715 21.8671C91.5013 22.0501 91.3727 22.2678 91.2946 22.5052C91.2165 22.7427 91.1907 22.9942 91.219 23.2425V28.2099H89.5L89.5 19.8352Z" fill="black"/>
<path d="M101.711 25.7503C101.479 27.2706 99.9989 28.314 98.1047 28.314C95.6684 28.314 94.1562 26.6817 94.1562 24.0629C94.1562 21.4361 95.6765 19.7324 98.0324 19.7324C100.349 19.7324 101.806 21.3241 101.806 23.8633V24.4523H95.8915V24.5561C95.8642 24.8644 95.9028 25.1749 96.0047 25.467C96.1066 25.7592 96.2695 26.0263 96.4826 26.2506C96.6957 26.475 96.9541 26.6514 97.2406 26.7683C97.5271 26.8851 97.8352 26.9396 98.1444 26.9283C98.5506 26.9663 98.9583 26.8722 99.3067 26.66C99.6552 26.4478 99.9258 26.1287 100.078 25.7503L101.711 25.7503ZM95.8996 23.2509H100.087C100.102 22.9737 100.06 22.6964 99.9631 22.4363C99.8663 22.1762 99.7168 21.9389 99.5239 21.7393C99.331 21.5397 99.0989 21.3821 98.8423 21.2765C98.5856 21.1708 98.3099 21.1194 98.0324 21.1253C97.7525 21.1237 97.475 21.1775 97.2159 21.2836C96.9569 21.3897 96.7214 21.5461 96.5232 21.7437C96.3249 21.9413 96.1677 22.1763 96.0607 22.4349C95.9537 22.6936 95.8989 22.9709 95.8996 23.2509V23.2509Z" fill="black"/>
<path d="M35.521 8.07658C35.8814 8.05071 36.243 8.10516 36.5798 8.23598C36.9166 8.36681 37.2202 8.57075 37.4686 8.83311C37.7171 9.09546 37.9042 9.40968 38.0165 9.75311C38.1288 10.0965 38.1635 10.4606 38.118 10.8191C38.118 12.5823 37.165 13.5959 35.521 13.5959H33.5273V8.07658H35.521ZM34.3846 12.8154H35.4252C35.6827 12.8307 35.9405 12.7885 36.1796 12.6918C36.4188 12.595 36.6333 12.4461 36.8077 12.256C36.982 12.0658 37.1118 11.8392 37.1875 11.5926C37.2632 11.3459 37.283 11.0855 37.2454 10.8303C37.2803 10.5761 37.2585 10.3173 37.1816 10.0725C37.1047 9.82766 36.9746 9.60288 36.8007 9.41425C36.6267 9.22561 36.4132 9.07779 36.1754 8.98137C35.9376 8.88495 35.6814 8.84233 35.4252 8.85654H34.3846V12.8154Z" fill="black"/>
<path d="M39.0874 11.5127C39.0612 11.239 39.0925 10.9628 39.1793 10.7019C39.2661 10.441 39.4065 10.2011 39.5915 9.99761C39.7764 9.79413 40.0019 9.63154 40.2533 9.52029C40.5048 9.40903 40.7767 9.35156 41.0517 9.35156C41.3267 9.35156 41.5986 9.40903 41.8501 9.52029C42.1015 9.63154 42.327 9.79413 42.5119 9.99761C42.6968 10.2011 42.8372 10.441 42.924 10.7019C43.0108 10.9628 43.0421 11.239 43.016 11.5127C43.0426 11.7867 43.0117 12.0633 42.9251 12.3246C42.8386 12.5859 42.6983 12.8263 42.5133 13.0302C42.3283 13.234 42.1027 13.397 41.851 13.5085C41.5992 13.62 41.327 13.6776 41.0517 13.6776C40.7764 13.6776 40.5041 13.62 40.2524 13.5085C40.0007 13.397 39.7751 13.234 39.5901 13.0302C39.4051 12.8263 39.2648 12.5859 39.1782 12.3246C39.0917 12.0633 39.0607 11.7867 39.0874 11.5127ZM42.1704 11.5127C42.1704 10.6098 41.7648 10.0819 41.053 10.0819C40.3385 10.0819 39.9366 10.6098 39.9366 11.5127C39.9366 12.4228 40.3385 12.9467 41.053 12.9467C41.7649 12.9467 42.1705 12.4192 42.1705 11.5127H42.1704Z" fill="black"/>
<path d="M48.238 13.5949H47.3853L46.5244 10.5272H46.4594L45.6021 13.5949H44.7575L43.6094 9.42969H44.4431L45.1893 12.608H45.2507L46.1071 9.42969H46.8957L47.752 12.608H47.817L48.5596 9.42969H49.3816L48.238 13.5949Z" fill="black"/>
<path d="M50.3477 9.4302H51.139V10.0919H51.2004C51.3046 9.85423 51.4804 9.65501 51.7032 9.52199C51.926 9.38897 52.1847 9.32878 52.4434 9.3498C52.646 9.33457 52.8495 9.36512 53.0388 9.43921C53.228 9.5133 53.3982 9.62902 53.5367 9.7778C53.6751 9.92658 53.7783 10.1046 53.8386 10.2987C53.8989 10.4928 53.9148 10.6979 53.8851 10.899V13.5954H53.063V11.1054C53.063 10.4361 52.7722 10.1032 52.1642 10.1032C52.0266 10.0968 51.8893 10.1202 51.7616 10.1718C51.6339 10.2235 51.5188 10.3021 51.4244 10.4024C51.3299 10.5026 51.2582 10.6221 51.2143 10.7527C51.1703 10.8832 51.1551 11.0217 51.1697 11.1587V13.5954H50.3477L50.3477 9.4302Z" fill="black"/>
<path d="M55.1914 7.80469H56.0134V13.5959H55.1914V7.80469Z" fill="black"/>
<path d="M57.1577 11.5108C57.1315 11.2371 57.1629 10.9609 57.2497 10.7C57.3365 10.4391 57.4769 10.1992 57.6619 9.99567C57.8468 9.79218 58.0723 9.62959 58.3238 9.51834C58.5753 9.40708 58.8472 9.34961 59.1222 9.34961C59.3972 9.34961 59.6691 9.40708 59.9206 9.51834C60.1721 9.62959 60.3976 9.79218 60.5825 9.99567C60.7675 10.1992 60.9079 10.4391 60.9947 10.7C61.0815 10.9609 61.1129 11.2371 61.0867 11.5108C61.1133 11.7849 61.0824 12.0614 60.9958 12.3227C60.9092 12.5841 60.7689 12.8244 60.5838 13.0283C60.3988 13.2322 60.1732 13.3951 59.9215 13.5066C59.6698 13.6181 59.3975 13.6757 59.1222 13.6757C58.8469 13.6757 58.5746 13.6181 58.3229 13.5066C58.0712 13.3951 57.8456 13.2322 57.6606 13.0283C57.4755 12.8244 57.3352 12.5841 57.2486 12.3227C57.162 12.0614 57.1311 11.7849 57.1577 11.5108ZM60.2407 11.5108C60.2407 10.608 59.8351 10.08 59.1233 10.08C58.4088 10.08 58.0069 10.608 58.0069 11.5108C58.0069 12.4209 58.4088 12.9449 59.1233 12.9449C59.8351 12.9449 60.2407 12.4173 60.2407 11.5108H60.2407Z" fill="black"/>
<path d="M61.9531 12.4192C61.9531 11.6695 62.5114 11.2372 63.5023 11.1758L64.6306 11.1108V10.7513C64.6306 10.3113 64.3397 10.0629 63.7778 10.0629C63.3189 10.0629 63.001 10.2314 62.9097 10.5259H62.1139C62.1979 9.81045 62.8709 9.35156 63.8158 9.35156C64.86 9.35156 65.449 9.87141 65.449 10.7513V13.5972H64.6577V13.0118H64.5926C64.4606 13.2218 64.2752 13.393 64.0554 13.5078C63.8356 13.6227 63.5893 13.6772 63.3415 13.6658C63.1667 13.684 62.9899 13.6653 62.8227 13.611C62.6555 13.5567 62.5016 13.468 62.3708 13.3506C62.2399 13.2331 62.1352 13.0896 62.0633 12.9291C61.9913 12.7687 61.9538 12.595 61.9531 12.4192ZM64.6306 12.0633V11.7151L63.6134 11.7801C63.0398 11.8185 62.7797 12.0136 62.7797 12.3808C62.7797 12.7557 63.1048 12.9739 63.552 12.9739C63.6831 12.9871 63.8154 12.9739 63.9412 12.935C64.067 12.896 64.1837 12.8322 64.2843 12.7472C64.385 12.6623 64.4675 12.558 64.5269 12.4405C64.5864 12.323 64.6217 12.1947 64.6306 12.0633Z" fill="black"/>
<path d="M66.5273 11.5115C66.5273 10.1953 67.2039 9.36157 68.2563 9.36157C68.5166 9.34958 68.775 9.41193 69.0011 9.54133C69.2273 9.67073 69.412 9.86184 69.5336 10.0923H69.595V7.80469H70.417V13.5959H69.6294V12.9378H69.5643C69.4333 13.1667 69.2422 13.3555 69.0117 13.4836C68.7811 13.6117 68.5199 13.6742 68.2563 13.6645C67.1967 13.6646 66.5273 12.8308 66.5273 11.5115ZM67.3765 11.5115C67.3765 12.3949 67.7929 12.9265 68.4894 12.9265C69.1822 12.9265 69.6104 12.3873 69.6104 11.5151C69.6104 10.647 69.1777 10.1 68.4894 10.1C67.7974 10.1 67.3765 10.6353 67.3765 11.5115H67.3765Z" fill="black"/>
<path d="M73.8179 11.5127C73.7917 11.239 73.823 10.9628 73.9098 10.7019C73.9966 10.441 74.137 10.2011 74.3219 9.99761C74.5069 9.79413 74.7323 9.63154 74.9838 9.52029C75.2352 9.40903 75.5072 9.35156 75.7822 9.35156C76.0571 9.35156 76.3291 9.40903 76.5805 9.52029C76.832 9.63154 77.0574 9.79413 77.2424 9.99761C77.4273 10.2011 77.5677 10.441 77.6545 10.7019C77.7413 10.9628 77.7726 11.239 77.7464 11.5127C77.7731 11.7867 77.7422 12.0633 77.6556 12.3246C77.569 12.5859 77.4287 12.8263 77.2437 13.0302C77.0587 13.234 76.8331 13.397 76.5814 13.5085C76.3297 13.62 76.0575 13.6776 75.7822 13.6776C75.5069 13.6776 75.2346 13.62 74.9829 13.5085C74.7312 13.397 74.5056 13.234 74.3206 13.0302C74.1356 12.8263 73.9953 12.5859 73.9087 12.3246C73.8221 12.0633 73.7912 11.7867 73.8179 11.5127ZM76.9009 11.5127C76.9009 10.6098 76.4953 10.0819 75.7835 10.0819C75.069 10.0819 74.667 10.6098 74.667 11.5127C74.667 12.4228 75.069 12.9467 75.7835 12.9467C76.4953 12.9467 76.9009 12.4192 76.9009 11.5127Z" fill="black"/>
<path d="M78.8516 9.4302H79.6429V10.0919H79.7043C79.8085 9.85423 79.9843 9.65501 80.2071 9.52199C80.4299 9.38897 80.6886 9.32878 80.9473 9.3498C81.1499 9.33457 81.3534 9.36512 81.5427 9.43921C81.7319 9.5133 81.9021 9.62902 82.0406 9.7778C82.179 9.92658 82.2822 10.1046 82.3425 10.2987C82.4029 10.4928 82.4187 10.6979 82.389 10.899V13.5954H81.567V11.1054C81.567 10.4361 81.2761 10.1032 80.6682 10.1032C80.5306 10.0968 80.3932 10.1202 80.2655 10.1718C80.1378 10.2235 80.0228 10.3021 79.9283 10.4024C79.8338 10.5026 79.7622 10.6221 79.7182 10.7527C79.6742 10.8832 79.659 11.0217 79.6736 11.1587V13.5954H78.8516V9.4302Z" fill="black"/>
<path d="M87.0349 8.39453V9.45051H87.9374V10.1429H87.0349V12.2847C87.0349 12.721 87.2147 12.912 87.6239 12.912C87.7287 12.9117 87.8333 12.9054 87.9374 12.8931V13.5778C87.7897 13.6042 87.6402 13.6182 87.4902 13.6198C86.5761 13.6198 86.212 13.2982 86.212 12.4951V10.1429H85.5508V9.45047H86.212V8.39453H87.0349Z" fill="black"/>
<path d="M89.0586 7.80469H89.8734V10.1H89.9384C90.0477 9.86016 90.2283 9.65981 90.4555 9.52629C90.6828 9.39277 90.9457 9.33257 91.2084 9.35389C91.4101 9.34292 91.6116 9.37658 91.7987 9.45246C91.9858 9.52835 92.1539 9.6446 92.2909 9.79291C92.4279 9.94123 92.5305 10.1179 92.5913 10.3105C92.6522 10.503 92.6698 10.7066 92.6429 10.9067V13.5959H91.8201V11.1095C91.8201 10.4442 91.5102 10.1072 90.9294 10.1072C90.7881 10.0957 90.646 10.1151 90.513 10.1642C90.38 10.2132 90.2594 10.2908 90.1595 10.3914C90.0596 10.4919 89.9829 10.6131 89.9347 10.7465C89.8865 10.8798 89.8681 11.022 89.8807 11.1632V13.5959H89.0586L89.0586 7.80469Z" fill="black"/>
<path d="M97.4342 12.4706C97.3225 12.8513 97.0805 13.1806 96.7506 13.4009C96.4206 13.6212 96.0237 13.7184 95.6293 13.6757C95.3549 13.6829 95.0822 13.6304 94.8302 13.5216C94.5781 13.4129 94.3527 13.2507 94.1696 13.0461C93.9866 12.8416 93.8502 12.5996 93.77 12.3371C93.6898 12.0746 93.6677 11.7977 93.7053 11.5258C93.6687 11.253 93.6912 10.9756 93.7712 10.7123C93.8512 10.4489 93.9869 10.2059 94.169 9.99953C94.3511 9.79318 94.5754 9.62837 94.8267 9.51626C95.078 9.40414 95.3505 9.34733 95.6257 9.34968C96.7847 9.34968 97.4839 10.1415 97.4839 11.4494V11.7363H94.5426V11.7823C94.5298 11.9352 94.549 12.089 94.599 12.234C94.6491 12.379 94.7289 12.512 94.8334 12.6243C94.9378 12.7366 95.0646 12.8259 95.2055 12.8864C95.3465 12.9469 95.4985 12.9773 95.6519 12.9756C95.8485 12.9992 96.0478 12.9638 96.2242 12.8739C96.4007 12.7839 96.5464 12.6436 96.6429 12.4706L97.4342 12.4706ZM94.5426 11.1283H96.6465C96.6568 10.9885 96.6378 10.8481 96.5907 10.7161C96.5435 10.5841 96.4693 10.4634 96.3728 10.3618C96.2762 10.2601 96.1595 10.1799 96.03 10.126C95.9006 10.0722 95.7613 10.0461 95.6212 10.0493C95.479 10.0475 95.3379 10.0742 95.2062 10.1278C95.0745 10.1814 94.9549 10.2608 94.8544 10.3614C94.7539 10.4619 94.6745 10.5816 94.621 10.7133C94.5674 10.845 94.5408 10.9861 94.5426 11.1283H94.5426Z" fill="black"/>
</g>
<defs>
<clipPath id="clip0_196_21166">
<rect width="110.689" height="37" fill="white" transform="translate(0.53125)"/>
</clipPath>
</defs>
</svg>
