<svg width="125" height="37" viewBox="0 0 125 37" fill="none" xmlns="http://www.w3.org/2000/svg">
<g clip-path="url(#clip0_196_21165)">
<g clip-path="url(#clip1_196_21165)">
<path d="M119.804 36.9062H4.75433C2.22324 36.9062 0.152344 34.8354 0.152344 32.3043V4.69232C0.152344 2.16122 2.22324 0.0903282 4.75433 0.0903282H119.804C122.335 0.0903282 124.406 2.16122 124.406 4.69232V32.3043C124.406 34.8354 122.335 36.9062 119.804 36.9062Z" fill="#C9C74D"/>
<path d="M119.804 0.0903282H4.75433C2.22324 0.0903282 0.152344 2.16122 0.152344 4.69232V32.3043C0.152344 34.8354 2.22324 36.9062 4.75433 36.9062H119.804C122.335 36.9062 124.406 34.8354 124.406 32.3043V4.69232C124.406 2.16122 122.335 0.0903282 119.804 0.0903282ZM119.804 0.826649C121.936 0.826649 123.67 2.56105 123.67 4.69232V32.3043C123.67 34.4359 121.936 36.1703 119.804 36.1703H4.75433C2.62306 36.1703 0.888662 34.4359 0.888662 32.3043V4.69232C0.888662 2.56105 2.62306 0.826649 4.75433 0.826649H119.804Z" fill="black"/>
<path d="M19.1308 17.8769L9.33203 28.2772C9.3324 28.2794 9.33314 28.2812 9.3335 28.2833C9.63401 29.4126 10.6655 30.2441 11.8897 30.2441C12.379 30.2441 12.8385 30.1118 13.2325 29.8796L13.2638 29.8612L24.2936 23.4967L19.1308 17.8769Z" fill="#EB3131"/>
<path d="M29.0462 16.1065L29.0368 16.1001L24.2749 13.3396L18.9102 18.1134L24.2936 23.4961L29.0303 20.763C29.8608 20.3147 30.4245 19.4393 30.4245 18.4297C30.4245 17.4274 29.8683 16.5563 29.0462 16.1065Z" fill="#F6B60B"/>
<path d="M9.33205 8.53814C9.27315 8.75534 9.24219 8.98286 9.24219 9.21912V27.5968C9.24219 27.8326 9.27278 28.0609 9.33242 28.2773L19.4684 18.1432L9.33205 8.53814Z" fill="#5778C5"/>
<path d="M19.2034 18.4082L24.2752 13.3379L13.258 6.95027C12.8575 6.71042 12.3902 6.572 11.89 6.572C10.6658 6.572 9.63299 7.40503 9.3324 8.53571C9.33203 8.53681 9.33203 8.53755 9.33203 8.53856L19.2034 18.4082Z" fill="#3BAD49"/>
</g>
<path d="M43.8296 9.52114C43.8296 10.2922 43.6012 10.9063 43.1439 11.3644C42.6244 11.9091 41.9474 12.1816 41.1151 12.1816C40.318 12.1816 39.6403 11.9055 39.083 11.3525C38.5247 10.7999 38.2461 10.1147 38.2461 9.29711C38.2461 8.47916 38.5247 7.79429 39.083 7.24131C39.6403 6.6887 40.318 6.41222 41.1151 6.41222C41.5106 6.41222 41.8892 6.48953 42.2487 6.64379C42.6082 6.79842 42.8966 7.00366 43.1123 7.26073L42.6269 7.74643C42.2613 7.30961 41.758 7.09138 41.1151 7.09138C40.5337 7.09138 40.0311 7.29562 39.6069 7.70436C39.1826 8.11357 38.9705 8.64418 38.9705 9.29711C38.9705 9.95004 39.1826 10.4807 39.6069 10.8899C40.0311 11.2986 40.5337 11.5028 41.1151 11.5028C41.7317 11.5028 42.2459 11.2975 42.6575 10.8863C42.9247 10.6183 43.0792 10.246 43.1205 9.76771H41.1151V9.10438H43.7911C43.817 9.24861 43.8296 9.38703 43.8296 9.52114Z" fill="black"/>
<path d="M43.8318 9.52089H43.7398C43.739 10.2744 43.5189 10.8597 43.081 11.2991L43.08 11.2998L43.0796 11.3006C42.5766 11.8265 41.9302 12.0883 41.1173 12.0894C40.3415 12.0883 39.6921 11.8236 39.1499 11.2872C38.6089 10.7497 38.3413 10.0936 38.3403 9.29687C38.3413 8.4998 38.6089 7.84402 39.1499 7.30688C39.6921 6.7701 40.3415 6.50512 41.1173 6.50401C41.5009 6.50401 41.8662 6.57884 42.2146 6.72804C42.5633 6.87834 42.8388 7.0753 43.044 7.31985L43.1145 7.26049L43.0495 7.19542L42.564 7.68148L42.6291 7.74618L42.7 7.68728C42.3174 7.22883 41.7803 6.99772 41.1173 6.9991C40.5144 6.99836 39.9841 7.21373 39.5454 7.63804C39.1025 8.06372 38.88 8.62415 38.8807 9.29687C38.88 9.96959 39.1025 10.53 39.5454 10.9557C39.9841 11.38 40.5144 11.5954 41.1173 11.5946C41.7544 11.5957 42.2973 11.3796 42.7247 10.9511C43.0102 10.6649 43.1721 10.2683 43.2145 9.77538L43.223 9.67543H41.2093V9.19618H43.7933V9.10414L43.7027 9.12034C43.7279 9.25987 43.7398 9.3925 43.7398 9.52089H43.8318H43.9238C43.9238 9.38099 43.9109 9.23723 43.8839 9.08766L43.8703 9.0121H41.0252V9.76747V9.85951H43.1227V9.76747L43.031 9.75955C42.9905 10.2227 42.843 10.5714 42.5946 10.821C42.1991 11.215 41.7138 11.4095 41.1173 11.4106C40.5575 11.4098 40.0826 11.2171 39.6731 10.8234C39.2675 10.4312 39.0658 9.93038 39.0648 9.29687C39.0658 8.66336 39.2675 8.16257 39.6731 7.7703C40.0826 7.37664 40.5575 7.18391 41.1173 7.18318C41.7396 7.18465 42.2096 7.39026 42.5587 7.80555L42.6234 7.88249L43.1796 7.32556L43.2392 7.26592L43.1849 7.20149C42.9588 6.93191 42.6575 6.71791 42.2872 6.55905C41.9162 6.39973 41.5246 6.31993 41.1173 6.31993C40.299 6.3192 39.5929 6.60682 39.0201 7.176C38.4453 7.74407 38.1555 8.45811 38.1563 9.29687C38.1555 10.1353 38.4453 10.8497 39.0205 11.4181C39.5929 11.9869 40.299 12.2742 41.1173 12.2734C41.9694 12.2742 42.6762 11.9912 43.2126 11.4278L43.1461 11.3642L43.2112 11.4292C43.6879 10.9528 43.9245 10.3093 43.9238 9.52089H43.8318Z" fill="black"/>
<path d="M48.0715 7.21463H45.5566V8.96559H47.8246V9.6292H45.5566V11.3802H48.0715V12.0586H44.8477V6.5362H48.0715V7.21463Z" fill="black"/>
<path d="M48.0737 7.21439V7.12235H45.4668V9.05739H47.7347V9.53664L45.4668 9.53692V11.472H47.9817V11.9663H44.9419V6.628H47.9817V7.21439H48.0737V7.12235V7.21439H48.1658V6.53596V6.44392H44.7578V12.1504H48.1658V11.3799V11.2879H45.6509V9.721H47.9188V8.96535V8.87331H45.6509V7.30643H48.1658V7.21439H48.0737Z" fill="black"/>
<path d="M51.065 12.0586H50.3549V7.21463H48.8125V6.5362H52.6074V7.21463H51.065V12.0586Z" fill="black"/>
<path d="M51.0633 12.0584V11.9663H50.4452V7.12235H48.9028V6.628H52.5136V7.12235H50.9712V12.0584H51.0633V11.9663V12.0584H51.1553V7.30643H52.6977V6.53596V6.44392H48.7188V7.21439V7.30643H50.2612V12.1504H51.0633H51.1553V12.0584H51.0633Z" fill="black"/>
<path d="M55.3516 12.0586V6.5362H56.0609V12.0586H55.3516Z" fill="black"/>
<path d="M55.3538 12.0584H55.4458V6.628H55.9711V11.9663H55.3538V12.0584H55.4458H55.3538V12.1504H56.0631H56.1551V6.44392H55.3538H55.2617V12.1504H55.3538V12.0584Z" fill="black"/>
<path d="M59.2094 12.0586H58.4993V7.21463H56.957V6.5362H60.7518V7.21463H59.2094V12.0586Z" fill="black"/>
<path d="M59.2116 12.0584V11.9663H58.5936V7.12235H57.0513V6.628H60.662V7.12235H59.1196V12.0584H59.2116V11.9663V12.0584H59.3037V7.30643H60.8461V6.53596V6.44392H56.8672V7.21439V7.30643H58.4095V12.1504H59.2116H59.3037V12.0584H59.2116Z" fill="black"/>
<path d="M64.4116 10.8823C64.8204 11.2961 65.3205 11.5028 65.912 11.5028C66.5034 11.5028 67.0038 11.2961 67.412 10.8823C67.8211 10.4685 68.026 9.93955 68.026 9.29711C68.026 8.65468 67.8211 8.12572 67.412 7.71191C67.0038 7.2981 66.5034 7.09138 65.912 7.09138C65.3205 7.09138 64.8204 7.2981 64.4116 7.71191C64.0035 8.12572 63.7987 8.65468 63.7987 9.29711C63.7987 9.93955 64.0035 10.4685 64.4116 10.8823ZM67.9369 11.3446C67.3939 11.9029 66.7187 12.1816 65.912 12.1816C65.1044 12.1816 64.4296 11.9029 63.8878 11.3446C63.3445 10.787 63.0742 10.1043 63.0742 9.29711C63.0742 8.48992 63.3445 7.80717 63.8878 7.24959C64.4296 6.69119 65.1044 6.41222 65.912 6.41222C66.7145 6.41222 67.3878 6.69266 67.9333 7.25318C68.478 7.81371 68.7505 8.49499 68.7505 9.29711C68.7505 10.1043 68.4786 10.787 67.9369 11.3446Z" fill="black"/>
<path d="M64.4099 10.8821L64.3445 10.9468C64.7684 11.3772 65.2973 11.5957 65.9103 11.5946C66.5229 11.5957 67.0525 11.3772 67.4757 10.9468C67.9024 10.516 68.117 9.95873 68.1164 9.29687C68.117 8.63501 67.9024 8.07771 67.4757 7.64696C67.0525 7.21659 66.5229 6.99799 65.9103 6.9991C65.2973 6.99799 64.7684 7.21659 64.3445 7.64696C63.9188 8.07771 63.7038 8.63501 63.7049 9.29687C63.7038 9.95873 63.9188 10.516 64.3445 10.9468L64.4099 10.8821L64.4754 10.8174C64.0849 10.42 63.8897 9.92025 63.889 9.29687C63.8897 8.67348 64.0849 8.17371 64.4754 7.77637C64.8694 7.37913 65.34 7.18428 65.9103 7.18318C66.4801 7.18428 66.9518 7.37913 67.3448 7.77637C67.736 8.17371 67.9312 8.67348 67.9319 9.29687C67.9312 9.92025 67.736 10.42 67.3448 10.8174C66.9518 11.2146 66.4801 11.4095 65.9103 11.4106C65.34 11.4095 64.8694 11.2146 64.4754 10.8174L64.4099 10.8821ZM67.9351 11.3444L67.8693 11.2804C67.3416 11.8212 66.6962 12.0883 65.9103 12.0894C65.124 12.0883 64.4786 11.8212 63.9519 11.2804L63.9494 11.2776L63.9519 11.2804C63.4252 10.7378 63.1653 10.0835 63.1645 9.29687C63.1653 8.51021 63.4252 7.85589 63.9519 7.31332C64.4786 6.77259 65.124 6.50512 65.9103 6.50401C66.6911 6.50512 67.3351 6.77369 67.8658 7.31728C68.3942 7.86234 68.6556 8.51564 68.6567 9.29687C68.6556 10.0835 68.395 10.7378 67.8693 11.2804L67.9351 11.3444L68.0013 11.4084C68.5593 10.8353 68.8415 10.1245 68.8408 9.29687C68.8415 8.47394 68.5582 7.76459 67.9976 7.18897C67.4368 6.61115 66.7343 6.31892 65.9103 6.31993C65.0819 6.31892 64.3773 6.60977 63.82 7.18538V7.18502C63.2609 7.75842 62.9797 8.46925 62.9805 9.29687C62.9797 10.1245 63.2609 10.8353 63.82 11.4087L63.8224 11.4113L63.82 11.4084C64.3773 11.984 65.0819 12.2742 65.9103 12.2734C66.7383 12.2742 67.4429 11.984 68.0013 11.4084L67.9351 11.3444Z" fill="black"/>
<path d="M69.7461 12.0586V6.5362H70.6097L73.2936 10.8323H73.3241L73.2936 9.768V6.5362H74.0037V12.0586H73.263L70.4551 7.55435H70.4245L70.4551 8.61897V12.0586H69.7461Z" fill="black"/>
<path d="M69.7444 12.0584H69.8364V6.628H70.5569L73.2408 10.9241H73.3224H73.4169L73.3839 9.76638V6.628H73.9099V11.9663H73.3124L70.5044 7.46207H70.4228H70.3283L70.3613 8.6202V11.9663H69.7444V12.0584H69.8364H69.7444V12.1504H70.4534H70.5454V8.61726L70.5148 7.55162L70.4228 7.55411V7.64615H70.4534V7.55411L70.3753 7.60307L73.2102 12.1504H74.002H74.094V6.44392H73.2919H73.1998V9.76886L73.2304 10.8345L73.3224 10.832V10.74H73.2919V10.832L73.3699 10.7831L70.659 6.44392H69.7444H69.6523V12.1504H69.7444V12.0584Z" fill="black"/>
<path d="M98.6098 27.7053H100.327V16.1992H98.6098V27.7053ZM114.079 20.344L112.11 25.3324H112.051L110.008 20.344H108.158L111.222 27.3163L109.475 31.1945H111.267L115.989 20.344H114.079ZM104.339 26.3984C103.776 26.3984 102.992 26.1173 102.992 25.4212C102.992 24.5332 103.969 24.1927 104.812 24.1927C105.568 24.1927 105.922 24.3555 106.382 24.5778C106.248 25.6434 105.331 26.3984 104.339 26.3984ZM104.546 20.0922C103.303 20.0922 102.015 20.6401 101.482 21.854L103.007 22.4903C103.332 21.854 103.939 21.6465 104.576 21.6465C105.464 21.6465 106.367 22.1797 106.382 23.1271V23.2453C106.071 23.0677 105.405 22.8013 104.591 22.8013C102.948 22.8013 101.274 23.7041 101.274 25.3917C101.274 26.9313 102.622 27.9232 104.131 27.9232C105.286 27.9232 105.922 27.4051 106.323 26.7983H106.382V27.6863H108.039V23.2748C108.039 21.2323 106.515 20.0922 104.546 20.0922ZM93.9324 21.7446H91.4896V17.8006H93.9324C95.2163 17.8006 95.9453 18.8637 95.9453 19.7726C95.9453 20.6643 95.2163 21.7446 93.9324 21.7446ZM93.8882 16.1992H89.7731V27.7053H91.4896V23.346H93.8882C95.7916 23.346 97.6627 21.9679 97.6627 19.7726C97.6627 17.5773 95.7916 16.1992 93.8882 16.1992ZM71.448 26.4005C70.2615 26.4005 69.2681 25.4072 69.2681 24.0428C69.2681 22.664 70.2615 21.6555 71.448 21.6555C72.6194 21.6555 73.5387 22.664 73.5387 24.0428C73.5387 25.4072 72.6194 26.4005 71.448 26.4005ZM73.42 20.9882H73.3606C72.9753 20.5287 72.2335 20.1135 71.2995 20.1135C69.3422 20.1135 67.5481 21.8334 67.5481 24.0428C67.5481 26.2374 69.3422 27.9426 71.2995 27.9426C72.2335 27.9426 72.9753 27.5273 73.3606 27.0531H73.42V27.6165C73.42 29.1143 72.6194 29.915 71.3293 29.915C70.2766 29.915 69.6241 29.1585 69.3569 28.5211L67.8595 29.1438C68.2895 30.1817 69.4314 31.457 71.3293 31.457C73.3459 31.457 75.0511 30.2705 75.0511 27.3792V20.3508H73.42V20.9882ZM76.2373 27.7053H77.9573V16.1989H76.2373V27.7053ZM80.493 23.9094C80.4484 22.3968 81.6644 21.626 82.5391 21.626C83.2217 21.626 83.7997 21.9668 83.9921 22.4566L80.493 23.9094ZM85.831 22.6046C85.5052 21.7295 84.5112 20.1135 82.4798 20.1135C80.4632 20.1135 78.7878 21.7001 78.7878 24.028C78.7878 26.2226 80.4484 27.9426 82.6725 27.9426C84.467 27.9426 85.5052 26.8453 85.935 26.2078L84.6005 25.318C84.1559 25.9705 83.5475 26.4005 82.6725 26.4005C81.7977 26.4005 81.1751 26.0001 80.7745 25.2144L86.0087 23.0494L85.831 22.6046ZM44.1294 21.3146V22.9753H48.1033C47.9846 23.9094 47.6733 24.5914 47.1987 25.066C46.6206 25.6444 45.716 26.2819 44.1294 26.2819C41.6828 26.2819 39.7701 24.3099 39.7701 21.8633C39.7701 19.4167 41.6828 17.4443 44.1294 17.4443C45.4492 17.4443 46.4128 17.9634 47.1246 18.6307L48.296 17.4594C47.3026 16.5102 45.9828 15.7837 44.1294 15.7837C40.7782 15.7837 37.9609 18.5121 37.9609 21.8633C37.9609 25.2144 40.7782 27.9426 44.1294 27.9426C45.9386 27.9426 47.3026 27.3498 48.3701 26.2374C49.4674 25.1401 49.8086 23.598 49.8086 22.3526C49.8086 21.9668 49.779 21.6113 49.7194 21.3146H44.1294ZM54.3264 26.4005C53.14 26.4005 52.1168 25.4219 52.1168 24.028C52.1168 22.6194 53.14 21.6555 54.3264 21.6555C55.5125 21.6555 56.5357 22.6194 56.5357 24.028C56.5357 25.4219 55.5125 26.4005 54.3264 26.4005ZM54.3264 20.1135C52.1613 20.1135 50.3967 21.7593 50.3967 24.028C50.3967 26.2819 52.1613 27.9426 54.3264 27.9426C56.4911 27.9426 58.2557 26.2819 58.2557 24.028C58.2557 21.7593 56.4911 20.1135 54.3264 20.1135ZM62.8983 26.4005C61.7123 26.4005 60.689 25.4219 60.689 24.028C60.689 22.6194 61.7123 21.6555 62.8983 21.6555C64.0844 21.6555 65.1076 22.6194 65.1076 24.028C65.1076 25.4219 64.0844 26.4005 62.8983 26.4005ZM62.8983 20.1135C60.7332 20.1135 58.969 21.7593 58.969 24.028C58.969 26.2819 60.7332 27.9426 62.8983 27.9426C65.0631 27.9426 66.8277 26.2819 66.8277 24.028C66.8277 21.7593 65.0631 20.1135 62.8983 20.1135Z" fill="black"/>
</g>
<defs>
<clipPath id="clip0_196_21165">
<rect width="124.53" height="37" fill="white"/>
</clipPath>
<clipPath id="clip1_196_21165">
<rect width="124.53" height="37" fill="white" transform="translate(0.0585938)"/>
</clipPath>
</defs>
</svg>
