<svg width="161" height="43" viewBox="0 0 161 43" fill="none" xmlns="http://www.w3.org/2000/svg">
<path d="M155.065 42.2383H6.71523C3.45154 42.2383 0.78125 39.8623 0.78125 36.9584V5.27904C0.78125 2.3751 3.45154 -0.000850677 6.71523 -0.000850677H155.065C158.328 -0.000850677 160.999 2.3751 160.999 5.27904V36.9584C160.999 39.8623 158.328 42.2383 155.065 42.2383Z" fill="#C9C74D"/>
<path d="M46.0027 19.3391C46.0139 18.4699 46.244 17.6177 46.6716 16.8618C47.0993 16.1059 47.7105 15.4707 48.4486 15.0155C47.9797 14.3437 47.3612 13.7908 46.6421 13.4008C45.923 13.0108 45.1232 12.7943 44.3062 12.7687C42.5633 12.5851 40.8736 13.815 39.9854 13.815C39.0801 13.815 37.7127 12.7869 36.2402 12.8173C35.2877 12.8482 34.3595 13.126 33.5459 13.6238C32.7323 14.1217 32.0611 14.8224 31.5977 15.6578C29.5905 19.1446 31.0877 24.2689 33.0105 27.0874C33.9725 28.4675 35.0969 30.0091 36.5681 29.9544C38.0077 29.8945 38.5454 29.0334 40.2831 29.0334C42.0048 29.0334 42.5092 29.9544 44.0102 29.9196C45.555 29.8945 46.5283 28.5334 47.4566 27.1402C48.1478 26.1569 48.6797 25.07 49.0326 23.92C48.1351 23.5391 47.3692 22.9017 46.8304 22.0871C46.2916 21.2724 46.0037 20.3167 46.0027 19.3391Z" fill="black"/>
<path d="M43.1665 10.9161C44.0088 9.90162 44.4237 8.59771 44.3233 7.28125C43.0364 7.41685 41.8478 8.03389 40.9941 9.00941C40.5767 9.48599 40.257 10.0404 40.0534 10.641C39.8497 11.2416 39.766 11.8766 39.807 12.5097C40.4507 12.5163 41.0874 12.3763 41.6693 12.1003C42.2513 11.8243 42.7631 11.4194 43.1665 10.9161Z" fill="black"/>
<path d="M63.274 26.6012H58.5496L57.4151 29.9622H55.4141L59.8889 17.5273H61.9679L66.4427 29.9622H64.4075L63.274 26.6012ZM59.0389 25.0503H62.7838L60.9377 19.5956H60.886L59.0389 25.0503Z" fill="black"/>
<path d="M76.1058 25.4308C76.1058 28.2481 74.6028 30.0582 72.3347 30.0582C71.7601 30.0883 71.1887 29.9555 70.6859 29.675C70.1831 29.3945 69.7691 28.9776 69.4915 28.472H69.4486V32.9625H67.5938V20.8973H69.3891V22.4052H69.4232C69.7136 21.9021 70.1346 21.4873 70.6412 21.2051C71.1479 20.9229 71.7213 20.7837 72.3005 20.8025C74.594 20.8025 76.1058 22.6213 76.1058 25.4308ZM74.1993 25.4308C74.1993 23.5953 73.2538 22.3886 71.8113 22.3886C70.3941 22.3886 69.4408 23.6207 69.4408 25.4308C69.4408 27.2575 70.3941 28.4808 71.8113 28.4808C73.2538 28.4808 74.1992 27.2829 74.1992 25.4308H74.1993Z" fill="black"/>
<path d="M86.0515 25.4308C86.0515 28.2481 84.5481 30.0582 82.28 30.0582C81.7054 30.0883 81.134 29.9555 80.6312 29.675C80.1284 29.3945 79.7144 28.9776 79.4368 28.472H79.3939V32.9625H77.5391V20.8973H79.3344V22.4052H79.3686C79.659 21.9021 80.0799 21.4873 80.5865 21.2051C81.0932 20.9229 81.6666 20.7837 82.2458 20.8025C84.5393 20.8025 86.0515 22.6213 86.0515 25.4308ZM84.1446 25.4308C84.1446 23.5953 83.1991 22.3886 81.7566 22.3886C80.3394 22.3886 79.3861 23.6207 79.3861 25.4308C79.3861 27.2575 80.3394 28.4808 81.7566 28.4808C83.1991 28.4808 84.1446 27.2829 84.1446 25.4308Z" fill="black"/>
<path d="M92.6253 26.4979C92.7627 27.731 93.9568 28.5406 95.5884 28.5406C97.1518 28.5406 98.2766 27.7309 98.2766 26.6191C98.2766 25.6539 97.5982 25.076 95.9919 24.6799L94.3856 24.2917C92.1097 23.7402 91.0531 22.6723 91.0531 20.9395C91.0531 18.794 92.9167 17.3203 95.5621 17.3203C98.182 17.3203 99.9774 18.794 100.038 20.9395H98.1654C98.0534 19.6985 97.0309 18.9495 95.5367 18.9495C94.0425 18.9495 93.02 19.7074 93.02 20.8104C93.02 21.6895 93.6731 22.2068 95.2706 22.6028L96.6361 22.9392C99.1791 23.5426 100.235 24.5674 100.235 26.3863C100.235 28.7127 98.3886 30.1697 95.4509 30.1697C92.7023 30.1697 90.8465 28.7469 90.7266 26.4978L92.6253 26.4979Z" fill="black"/>
<path d="M104.24 18.75V20.8955H105.958V22.3692H104.24V27.3672C104.24 28.1436 104.584 28.5054 105.339 28.5054C105.543 28.5019 105.747 28.4875 105.95 28.4624V29.9272C105.61 29.9909 105.265 30.0197 104.919 30.0133C103.09 30.0133 102.376 29.3239 102.376 27.5656V22.3692H101.062V20.8955H102.376V18.75H104.24Z" fill="black"/>
<path d="M106.953 25.4301C106.953 22.5776 108.628 20.7852 111.239 20.7852C113.859 20.7852 115.526 22.5776 115.526 25.4301C115.526 28.2905 113.868 30.0751 111.239 30.0751C108.611 30.0751 106.953 28.2905 106.953 25.4301ZM113.636 25.4301C113.636 23.4734 112.742 22.3185 111.239 22.3185C109.736 22.3185 108.842 23.4822 108.842 25.4301C108.842 27.3947 109.736 28.5408 111.239 28.5408C112.742 28.5408 113.636 27.3947 113.636 25.4301H113.636Z" fill="black"/>
<path d="M117.055 20.8972H118.824V22.4403H118.867C118.986 21.9584 119.268 21.5325 119.664 21.2342C120.059 20.9359 120.546 20.7834 121.04 20.8024C121.254 20.8016 121.467 20.8249 121.676 20.8718V22.6124C121.406 22.5297 121.124 22.4917 120.842 22.5C120.573 22.489 120.304 22.5367 120.055 22.6397C119.806 22.7427 119.581 22.8987 119.398 23.0968C119.214 23.295 119.075 23.5307 118.991 23.7877C118.907 24.0447 118.879 24.317 118.91 24.5858V29.9632H117.055L117.055 20.8972Z" fill="black"/>
<path d="M130.226 27.2999C129.976 28.9456 128.379 30.0751 126.335 30.0751C123.706 30.0751 122.074 28.3081 122.074 25.4732C122.074 22.6295 123.715 20.7852 126.257 20.7852C128.757 20.7852 130.329 22.5082 130.329 25.257V25.8946H123.947V26.0071C123.917 26.3407 123.959 26.6769 124.069 26.9931C124.179 27.3094 124.354 27.5986 124.584 27.8415C124.814 28.0843 125.093 28.2753 125.402 28.4018C125.711 28.5283 126.044 28.5873 126.377 28.575C126.816 28.6162 127.256 28.5144 127.632 28.2846C128.008 28.0549 128.3 27.7095 128.464 27.2998L130.226 27.2999ZM123.955 24.594H128.473C128.49 24.294 128.444 23.9938 128.34 23.7122C128.235 23.4306 128.074 23.1737 127.866 22.9577C127.658 22.7416 127.407 22.5711 127.13 22.4567C126.854 22.3423 126.556 22.2866 126.257 22.2931C125.955 22.2913 125.655 22.3495 125.376 22.4644C125.096 22.5793 124.842 22.7486 124.628 22.9625C124.414 23.1764 124.245 23.4307 124.129 23.7108C124.014 23.9908 123.955 24.291 123.955 24.594V24.594Z" fill="black"/>
<path d="M58.8035 8.17084C59.1924 8.14285 59.5826 8.20179 59.946 8.34341C60.3094 8.48504 60.637 8.70582 60.905 8.98983C61.1731 9.27384 61.375 9.614 61.4962 9.98577C61.6173 10.3575 61.6548 10.7517 61.6057 11.1397C61.6057 13.0486 60.5774 14.1458 58.8035 14.1458H56.6523V8.17084H58.8035ZM57.5773 13.3008H58.7002C58.978 13.3175 59.2561 13.2718 59.5142 13.167C59.7722 13.0622 60.0037 12.9011 60.1918 12.6952C60.38 12.4894 60.52 12.244 60.6017 11.9771C60.6834 11.7101 60.7047 11.4282 60.6642 11.1519C60.7018 10.8767 60.6783 10.5965 60.5953 10.3315C60.5124 10.0665 60.372 9.82315 60.1843 9.61894C59.9966 9.41473 59.7662 9.25471 59.5096 9.15033C59.253 9.04595 58.9766 8.99981 58.7002 9.0152H57.5773V13.3008Z" fill="black"/>
<path d="M62.6507 11.8903C62.6224 11.594 62.6562 11.295 62.7498 11.0126C62.8435 10.7301 62.995 10.4704 63.1945 10.2502C63.3941 10.0299 63.6373 9.85387 63.9087 9.73343C64.18 9.613 64.4734 9.55078 64.7701 9.55078C65.0668 9.55078 65.3602 9.613 65.6316 9.73343C65.9029 9.85387 66.1461 10.0299 66.3457 10.2502C66.5453 10.4704 66.6967 10.7301 66.7904 11.0126C66.8841 11.295 66.9178 11.594 66.8896 11.8903C66.9184 12.187 66.885 12.4863 66.7916 12.7693C66.6982 13.0522 66.5468 13.3123 66.3472 13.5331C66.1476 13.7538 65.9041 13.9301 65.6325 14.0508C65.3609 14.1715 65.0672 14.2339 64.7701 14.2339C64.4731 14.2339 64.1793 14.1715 63.9077 14.0508C63.6361 13.9301 63.3927 13.7538 63.1931 13.5331C62.9934 13.3123 62.8421 13.0522 62.7487 12.7693C62.6552 12.4863 62.6219 12.187 62.6507 11.8903ZM65.9773 11.8903C65.9773 10.9129 65.5396 10.3414 64.7716 10.3414C64.0006 10.3414 63.5669 10.9129 63.5669 11.8903C63.5669 12.8756 64.0006 13.4427 64.7716 13.4427C65.5396 13.4427 65.9773 12.8716 65.9773 11.8903H65.9773Z" fill="black"/>
<path d="M72.5256 14.1419H71.6055L70.6766 10.8209H70.6064L69.6814 14.1419H68.7701L67.5312 9.63281H68.4309L69.236 13.0735H69.3023L70.2263 9.63281H71.0772L72.0012 13.0735H72.0714L72.8726 9.63281H73.7595L72.5256 14.1419Z" fill="black"/>
<path d="M74.8008 9.63445H75.6546V10.3507H75.7209C75.8333 10.0935 76.023 9.87781 76.2634 9.73381C76.5038 9.58981 76.783 9.52465 77.0621 9.54741C77.2808 9.53091 77.5003 9.56399 77.7045 9.6442C77.9087 9.7244 78.0923 9.84968 78.2417 10.0107C78.3911 10.1718 78.5025 10.3645 78.5676 10.5746C78.6327 10.7847 78.6498 11.0068 78.6177 11.2245V14.1434H77.7307V11.4479C77.7307 10.7233 77.4169 10.363 76.7609 10.363C76.6124 10.356 76.4642 10.3814 76.3264 10.4373C76.1886 10.4932 76.0645 10.5783 75.9626 10.6869C75.8606 10.7954 75.7833 10.9248 75.7359 11.0661C75.6884 11.2074 75.672 11.3574 75.6877 11.5056V14.1435H74.8008L74.8008 9.63445Z" fill="black"/>
<path d="M80.0312 7.875H80.9182V14.1442H80.0312V7.875Z" fill="black"/>
<path d="M82.1506 11.8865C82.1224 11.5902 82.1562 11.2912 82.2499 11.0087C82.3436 10.7263 82.4951 10.4666 82.6946 10.2463C82.8942 10.026 83.1375 9.84997 83.4088 9.72953C83.6802 9.60909 83.9736 9.54688 84.2703 9.54688C84.5671 9.54688 84.8605 9.60909 85.1318 9.72953C85.4032 9.84997 85.6465 10.026 85.846 10.2463C86.0456 10.4666 86.1971 10.7263 86.2908 11.0087C86.3845 11.2912 86.4183 11.5902 86.39 11.8865C86.4188 12.1831 86.3854 12.4825 86.2919 12.7654C86.1985 13.0484 86.0471 13.3085 85.8475 13.5292C85.6478 13.7499 85.4044 13.9263 85.1328 14.047C84.8612 14.1677 84.5674 14.23 84.2703 14.23C83.9733 14.23 83.6795 14.1677 83.4079 14.047C83.1363 13.9263 82.8928 13.7499 82.6932 13.5292C82.4936 13.3085 82.3422 13.0484 82.2487 12.7654C82.1553 12.4825 82.1219 12.1831 82.1506 11.8865ZM85.4772 11.8865C85.4772 10.9091 85.0396 10.3375 84.2715 10.3375C83.5006 10.3375 83.0669 10.9091 83.0669 11.8865C83.0669 12.8717 83.5006 13.4389 84.2715 13.4389C85.0396 13.4389 85.4772 12.8678 85.4772 11.8865H85.4772Z" fill="black"/>
<path d="M87.3242 12.8717C87.3242 12.06 87.9266 11.5921 88.9958 11.5256L90.2132 11.4552V11.066C90.2132 10.5898 89.8994 10.3209 89.2931 10.3209C88.798 10.3209 88.4549 10.5032 88.3564 10.822H87.4977C87.5884 10.0475 88.3145 9.55078 89.334 9.55078C90.4608 9.55078 91.0963 10.1135 91.0963 11.066V14.1469H90.2424V13.5132H90.1723C90.0298 13.7405 89.8298 13.9258 89.5926 14.0502C89.3555 14.1745 89.0896 14.2336 88.8223 14.2211C88.6336 14.2408 88.443 14.2206 88.2625 14.1619C88.0821 14.1031 87.916 14.007 87.7748 13.8799C87.6337 13.7527 87.5207 13.5973 87.4431 13.4237C87.3654 13.25 87.325 13.062 87.3242 12.8717ZM90.2132 12.4864V12.1094L89.1157 12.1798C88.4968 12.2214 88.2161 12.4326 88.2161 12.8301C88.2161 13.2359 88.5669 13.4721 89.0495 13.4721C89.1908 13.4865 89.3336 13.4721 89.4694 13.43C89.6051 13.3878 89.731 13.3187 89.8396 13.2268C89.9482 13.1348 90.0372 13.0219 90.1014 12.8947C90.1656 12.7675 90.2036 12.6286 90.2132 12.4864Z" fill="black"/>
<path d="M92.2617 11.8878C92.2617 10.463 92.9918 9.56041 94.1273 9.56041C94.4082 9.54742 94.6869 9.61492 94.931 9.755C95.175 9.89509 95.3743 10.102 95.5055 10.3515H95.5718V7.875H96.4587V14.1442H95.6088V13.4318H95.5386C95.3973 13.6797 95.1911 13.884 94.9423 14.0227C94.6935 14.1613 94.4117 14.2291 94.1273 14.2186C92.984 14.2186 92.2617 13.316 92.2617 11.8878ZM93.178 11.8878C93.178 12.8442 93.6273 13.4197 94.3788 13.4197C95.1263 13.4197 95.5884 12.8359 95.5884 11.8917C95.5884 10.9519 95.1215 10.3598 94.3788 10.3598C93.6321 10.3598 93.1779 10.9392 93.1779 11.8878H93.178Z" fill="black"/>
<path d="M100.127 11.8903C100.099 11.594 100.133 11.295 100.226 11.0126C100.32 10.7301 100.472 10.4704 100.671 10.2502C100.871 10.0299 101.114 9.85387 101.385 9.73343C101.657 9.613 101.95 9.55078 102.247 9.55078C102.543 9.55078 102.837 9.613 103.108 9.73343C103.379 9.85387 103.623 10.0299 103.822 10.2502C104.022 10.4704 104.173 10.7301 104.267 11.0126C104.361 11.295 104.394 11.594 104.366 11.8903C104.395 12.187 104.362 12.4863 104.268 12.7693C104.175 13.0522 104.023 13.3123 103.824 13.5331C103.624 13.7538 103.381 13.9301 103.109 14.0508C102.838 14.1715 102.544 14.2339 102.247 14.2339C101.95 14.2339 101.656 14.1715 101.384 14.0508C101.113 13.9301 100.869 13.7538 100.67 13.5331C100.47 13.3123 100.319 13.0522 100.225 12.7693C100.132 12.4863 100.098 12.187 100.127 11.8903ZM103.454 11.8903C103.454 10.9129 103.016 10.3414 102.248 10.3414C101.477 10.3414 101.043 10.9129 101.043 11.8903C101.043 12.8756 101.477 13.4427 102.248 13.4427C103.016 13.4427 103.454 12.8716 103.454 11.8903Z" fill="black"/>
<path d="M105.559 9.63445H106.412V10.3507H106.479C106.591 10.0935 106.781 9.87781 107.021 9.73381C107.262 9.58981 107.541 9.52465 107.82 9.54741C108.039 9.53091 108.258 9.56399 108.462 9.6442C108.667 9.7244 108.85 9.84968 109 10.0107C109.149 10.1718 109.26 10.3645 109.325 10.5746C109.39 10.7847 109.408 11.0068 109.375 11.2245V14.1434H108.489V11.4479C108.489 10.7233 108.175 10.363 107.519 10.363C107.37 10.356 107.222 10.3814 107.084 10.4373C106.946 10.4932 106.822 10.5783 106.72 10.6869C106.618 10.7954 106.541 10.9248 106.494 11.0661C106.446 11.2074 106.43 11.3574 106.446 11.5056V14.1435H105.559V9.63445Z" fill="black"/>
<path d="M114.387 8.51172V9.65487H115.36V10.4044H114.387V12.723C114.387 13.1953 114.581 13.4021 115.022 13.4021C115.135 13.4018 115.248 13.3949 115.36 13.3816V14.1228C115.201 14.1514 115.04 14.1666 114.878 14.1683C113.891 14.1683 113.499 13.8202 113.499 12.9508V10.4044H112.785V9.65483H113.499V8.51172H114.387Z" fill="black"/>
<path d="M116.57 7.875H117.449V10.3598H117.52C117.638 10.1001 117.832 9.88326 118.078 9.73872C118.323 9.59418 118.607 9.529 118.89 9.55208C119.108 9.54021 119.325 9.57665 119.527 9.6588C119.729 9.74095 119.91 9.8668 120.058 10.0274C120.206 10.1879 120.317 10.3792 120.382 10.5876C120.448 10.7961 120.467 11.0164 120.438 11.2331V14.1443H119.55V11.4526C119.55 10.7324 119.216 10.3676 118.589 10.3676C118.436 10.3551 118.283 10.3761 118.14 10.4292C117.996 10.4824 117.866 10.5663 117.758 10.6752C117.65 10.7841 117.568 10.9153 117.516 11.0596C117.464 11.2039 117.444 11.3579 117.457 11.5108V14.1442H116.57L116.57 7.875Z" fill="black"/>
<path d="M125.609 12.9256C125.489 13.3377 125.227 13.6941 124.871 13.9326C124.515 14.1711 124.087 14.2764 123.662 14.2301C123.366 14.2379 123.071 14.181 122.799 14.0633C122.527 13.9456 122.284 13.77 122.087 13.5485C121.889 13.3271 121.742 13.0652 121.655 12.781C121.569 12.4968 121.545 12.1971 121.586 11.9027C121.546 11.6074 121.57 11.3071 121.657 11.022C121.743 10.7369 121.889 10.4738 122.086 10.2504C122.282 10.0271 122.524 9.84865 122.796 9.72728C123.067 9.60591 123.361 9.54441 123.658 9.54695C124.908 9.54695 125.663 10.4041 125.663 11.82V12.1305H122.489V12.1804C122.475 12.3459 122.496 12.5124 122.55 12.6694C122.604 12.8264 122.69 12.9703 122.803 13.0919C122.915 13.2135 123.052 13.3102 123.204 13.3756C123.356 13.4411 123.521 13.474 123.686 13.4722C123.898 13.4977 124.113 13.4594 124.304 13.3621C124.494 13.2647 124.651 13.1128 124.755 12.9255L125.609 12.9256ZM122.489 11.4724H124.759C124.77 11.3211 124.75 11.1691 124.699 11.0262C124.648 10.8832 124.568 10.7526 124.464 10.6426C124.36 10.5326 124.234 10.4457 124.094 10.3874C123.954 10.3291 123.804 10.3008 123.653 10.3043C123.499 10.3024 123.347 10.3313 123.205 10.3893C123.063 10.4473 122.934 10.5333 122.825 10.6422C122.717 10.751 122.631 10.8806 122.574 11.0232C122.516 11.1658 122.487 11.3185 122.489 11.4724H122.489Z" fill="black"/>
</svg>
