<svg width="161" height="43" viewBox="0 0 161 43" fill="none" xmlns="http://www.w3.org/2000/svg">
<path d="M154.283 42.2383H5.93398C2.67029 42.2383 0 39.8623 0 36.9584V5.27904C0 2.3751 2.67029 -0.000850677 5.93398 -0.000850677H154.283C157.547 -0.000850677 160.217 2.3751 160.217 5.27904V36.9584C160.217 39.8623 157.547 42.2383 154.283 42.2383Z" fill="#C9C74D"/>
<path d="M33.2197 19.065L22.6758 30.3238C22.6762 30.3261 22.677 30.3281 22.6774 30.3304C23.0007 31.5529 24.1106 32.4531 25.4279 32.4531C25.9545 32.4531 26.4489 32.3099 26.8729 32.0585L26.9065 32.0386L38.7751 25.1486L33.2197 19.065Z" fill="#EB3131"/>
<path d="M43.8873 17.1488L43.8772 17.1419L38.7532 14.1535L32.9805 19.3214L38.7733 25.1484L43.8702 22.1898C44.7639 21.7044 45.3705 20.7567 45.3705 19.6638C45.3705 18.5788 44.772 17.6357 43.8873 17.1488Z" fill="#F6B60B"/>
<path d="M22.6748 8.95554C22.6114 9.19068 22.5781 9.43698 22.5781 9.69274V29.5875C22.5781 29.8428 22.611 30.0899 22.6752 30.3242L33.582 19.3535L22.6748 8.95554Z" fill="#5778C5"/>
<path d="M33.2979 19.6406L38.7554 14.1517L26.9003 7.23684C26.4694 6.97719 25.9665 6.82734 25.4283 6.82734C24.111 6.82734 22.9996 7.72914 22.6762 8.95316C22.6758 8.95435 22.6758 8.95515 22.6758 8.95625L33.2979 19.6406Z" fill="#3BAD49"/>
<path d="M59.8011 10.0183C59.8011 10.8531 59.5554 11.5179 59.0632 12.0138C58.5043 12.6034 57.7757 12.8984 56.8801 12.8984C56.0224 12.8984 55.2932 12.5995 54.6935 12.0009C54.0928 11.4027 53.793 10.6609 53.793 9.77579C53.793 8.89031 54.0928 8.14891 54.6935 7.55028C55.2932 6.95206 56.0224 6.65275 56.8801 6.65275C57.3057 6.65275 57.7131 6.73644 58.1 6.90344C58.4868 7.07083 58.7971 7.29302 59.0293 7.57131L58.5069 8.0971C58.1136 7.62422 57.5719 7.38797 56.8801 7.38797C56.2546 7.38797 55.7137 7.60907 55.2573 8.05156C54.8007 8.49455 54.5725 9.06896 54.5725 9.77579C54.5725 10.4826 54.8007 11.057 55.2573 11.5C55.7137 11.9425 56.2546 12.1636 56.8801 12.1636C57.5437 12.1636 58.0969 11.9413 58.5398 11.4961C58.8273 11.2061 58.9936 10.803 59.0381 10.2852H56.8801V9.56715H59.7597C59.7875 9.72328 59.8011 9.87314 59.8011 10.0183Z" fill="black"/>
<path d="M59.8025 10.0202H59.7034C59.7026 10.836 59.4658 11.4696 58.9946 11.9452L58.9935 11.946L58.9931 11.9468C58.4519 12.5162 57.7562 12.7995 56.8815 12.8007C56.0467 12.7995 55.348 12.5131 54.7645 11.9324C54.1824 11.3505 53.8945 10.6402 53.8934 9.77772C53.8945 8.91485 54.1824 8.20494 54.7645 7.62345C55.348 7.04236 56.0467 6.75551 56.8815 6.75431C57.2943 6.75431 57.6874 6.83532 58.0622 6.99683C58.4375 7.15954 58.7339 7.37276 58.9548 7.6375L59.0307 7.57323L58.9606 7.50279L58.4383 8.02898L58.5083 8.09902L58.5846 8.03525C58.1729 7.53896 57.595 7.28877 56.8815 7.29026C56.2328 7.28946 55.6621 7.52262 55.1901 7.98195C54.7135 8.44277 54.4741 9.04946 54.4748 9.77772C54.4741 10.506 54.7135 11.1127 55.1901 11.5735C55.6621 12.0328 56.2328 12.266 56.8815 12.2652C57.567 12.2664 58.1513 12.0324 58.6112 11.5685C58.9184 11.2586 59.0926 10.8294 59.1382 10.2957L59.1474 10.1875H56.9805V9.66871H59.7611V9.56908L59.6635 9.58661C59.6907 9.73766 59.7034 9.88124 59.7034 10.0202H59.8025H59.9015C59.9015 9.86878 59.8875 9.71315 59.8585 9.55124L59.8439 9.46944H56.7825V10.2872V10.3868H59.0395V10.2872L58.9408 10.2786C58.8971 10.78 58.7385 11.1575 58.4712 11.4276C58.0456 11.8542 57.5234 12.0647 56.8815 12.0659C56.2791 12.0651 55.7681 11.8565 55.3275 11.4303C54.8911 11.0057 54.674 10.4635 54.6729 9.77772C54.674 9.09191 54.8911 8.54978 55.3275 8.12513C55.7681 7.69898 56.2791 7.49033 56.8815 7.48954C57.5512 7.49113 58.0569 7.71372 58.4326 8.16329L58.5022 8.24658L59.1007 7.64368L59.1648 7.57911L59.1064 7.50937C58.8631 7.21753 58.5389 6.98587 58.1404 6.81389C57.7412 6.64142 57.3198 6.55504 56.8815 6.55504C56.001 6.55424 55.2412 6.86561 54.6249 7.48177C54.0063 8.09673 53.6945 8.86972 53.6953 9.77772C53.6945 10.6853 54.0063 11.4587 54.6253 12.0741C55.2412 12.6898 56.001 13.0008 56.8815 13C57.7984 13.0008 58.559 12.6944 59.1362 12.0845L59.0646 12.0157L59.1346 12.0861C59.6477 11.5704 59.9022 10.8737 59.9015 10.0202H59.8025Z" fill="black"/>
<path d="M64.3675 7.52179H61.6613V9.4173H64.1018V10.1357H61.6613V12.0312H64.3675V12.7656H60.8984V6.78736H64.3675V7.52179Z" fill="black"/>
<path d="M64.365 7.52372V7.42408H61.5598V9.51886H64.0002V10.0377L61.5598 10.038V12.1328H64.2659V12.6679H60.995V6.88893H64.2659V7.52372H64.365V7.42408V7.52372H64.464V6.78929V6.68965H60.7969V12.8672H64.464V12.0331V11.9335H61.7579V10.2373H64.1983V9.41922V9.31959H61.7579V7.62336H64.464V7.52372H64.365Z" fill="black"/>
<path d="M67.5879 12.7656H66.8238V7.52179H65.1641V6.78736H69.2476V7.52179H67.5879V12.7656Z" fill="black"/>
<path d="M67.5853 12.7675V12.6679H66.9203V7.42408H65.2606V6.88893H69.146V7.42408H67.4863V12.7675H67.5853V12.6679V12.7675H67.6844V7.62336H69.3441V6.78929V6.68965H65.0625V7.52372V7.62336H66.7222V12.8672H67.5853H67.6844V12.7675H67.5853Z" fill="black"/>
<path d="M72.1992 12.7656V6.78736H72.9625V12.7656H72.1992Z" fill="black"/>
<path d="M72.2006 12.7675H72.2996V6.88893H72.8649V12.6679H72.2006V12.7675H72.2996H72.2006V12.8672H72.9639H73.0629V6.68965H72.2006H72.1016V12.8672H72.2006V12.7675Z" fill="black"/>
<path d="M76.3495 12.7656H75.5854V7.52179H73.9258V6.78736H78.0092V7.52179H76.3495V12.7656Z" fill="black"/>
<path d="M76.3508 12.7675V12.6679H75.6858V7.42408H74.0262V6.88893H77.9115V7.42408H76.2518V12.7675H76.3508V12.6679V12.7675H76.4499V7.62336H78.1096V6.78929V6.68965H73.8281V7.52372V7.62336H75.4877V12.8672H76.3508H76.4499V12.7675H76.3508Z" fill="black"/>
<path d="M81.9469 11.4919C82.3868 11.9398 82.925 12.1636 83.5614 12.1636C84.1978 12.1636 84.7363 11.9398 85.1754 11.4919C85.6156 11.0439 85.8362 10.4713 85.8362 9.77579C85.8362 9.08032 85.6156 8.5077 85.1754 8.05973C84.7363 7.61176 84.1978 7.38797 83.5614 7.38797C82.925 7.38797 82.3868 7.61176 81.9469 8.05973C81.5078 8.5077 81.2873 9.08032 81.2873 9.77579C81.2873 10.4713 81.5078 11.0439 81.9469 11.4919ZM85.7402 11.9923C85.156 12.5967 84.4295 12.8984 83.5614 12.8984C82.6924 12.8984 81.9663 12.5967 81.3833 11.9923C80.7987 11.3886 80.5078 10.6496 80.5078 9.77579C80.5078 8.90197 80.7987 8.16286 81.3833 7.55925C81.9663 6.95475 82.6924 6.65275 83.5614 6.65275C84.4249 6.65275 85.1495 6.95634 85.7364 7.56314C86.3225 8.16993 86.6157 8.90745 86.6157 9.77579C86.6157 10.6496 86.3232 11.3886 85.7402 11.9923Z" fill="black"/>
<path d="M81.9483 11.4938L81.8779 11.5638C82.3341 12.0297 82.9032 12.2664 83.5628 12.2652C84.222 12.2664 84.7918 12.0297 85.2472 11.5638C85.7064 11.0975 85.9373 10.4942 85.9366 9.77772C85.9373 9.06122 85.7064 8.45791 85.2472 7.99161C84.7918 7.5257 84.222 7.28906 83.5628 7.29026C82.9032 7.28906 82.3341 7.5257 81.8779 7.99161C81.4199 8.45791 81.1885 9.06122 81.1897 9.77772C81.1885 10.4942 81.4199 11.0975 81.8779 11.5638L81.9483 11.4938L82.0188 11.4237C81.5986 10.9936 81.3886 10.4526 81.3878 9.77772C81.3886 9.10287 81.5986 8.56184 82.0188 8.1317C82.4427 7.70167 82.9491 7.49073 83.5628 7.48954C84.1759 7.49073 84.6835 7.70167 85.1064 8.1317C85.5273 8.56184 85.7374 9.10287 85.7382 9.77772C85.7374 10.4526 85.5273 10.9936 85.1064 11.4237C84.6835 11.8538 84.1759 12.0647 83.5628 12.0659C82.9491 12.0647 82.4427 11.8538 82.0188 11.4237L81.9483 11.4938ZM85.7416 11.9943L85.6708 11.925C85.1029 12.5104 84.4085 12.7995 83.5628 12.8007C82.7167 12.7995 82.0222 12.5104 81.4554 11.925L81.4527 11.9219L81.4554 11.925C80.8887 11.3376 80.609 10.6293 80.6082 9.77772C80.609 8.92611 80.8887 8.21779 81.4554 7.63042C82.0222 7.04505 82.7167 6.75551 83.5628 6.75431C84.403 6.75551 85.0959 7.04625 85.667 7.63471C86.2356 8.22476 86.5169 8.93199 86.5181 9.77772C86.5169 10.6293 86.2364 11.3376 85.6708 11.925L85.7416 11.9943L85.8128 12.0635C86.4132 11.4432 86.7169 10.6737 86.7162 9.77772C86.7169 8.88685 86.412 8.11895 85.8089 7.49581C85.2054 6.87029 84.4495 6.55394 83.5628 6.55503C82.6714 6.55394 81.9132 6.86879 81.3135 7.49193V7.49153C80.7119 8.11227 80.4094 8.88177 80.4102 9.77772C80.4094 10.6737 80.7119 11.4432 81.3135 12.0639L81.3162 12.0667L81.3135 12.0635C81.9132 12.6866 82.6714 13.0008 83.5628 13C84.4537 13.0008 85.212 12.6866 85.8128 12.0635L85.7416 11.9943Z" fill="black"/>
<path d="M87.6875 12.7656V6.78736H88.6168L91.5048 11.4381H91.5376L91.5048 10.2859V6.78736H92.2689V12.7656H91.4719L88.4504 7.88955H88.4175L88.4504 9.04206V12.7656H87.6875Z" fill="black"/>
<path d="M87.6889 12.7675H87.7879V6.88893H88.5632L91.4512 11.5396H91.539H91.6407L91.6052 10.2864V6.88893H92.1712V12.6679H91.5282L88.5067 7.79184H88.4189H88.3172L88.3527 9.04558V12.6679H87.6889V12.7675H87.7879H87.6889V12.8672H88.4518H88.5508V9.0424L88.5179 7.88879L88.4189 7.89148V7.99112H88.4518V7.89148L88.3678 7.94449L91.4183 12.8672H92.2702H92.3693V6.68965H91.5061H91.4071V10.2891L91.44 11.4427L91.539 11.44V11.3403H91.5061V11.44L91.5901 11.3871L88.673 6.68965H87.6889H87.5898V12.8672H87.6889V12.7675Z" fill="black"/>
<path d="M54 30.7421V19.1584H58.3477C59.2384 19.1584 59.9856 19.3243 60.5895 19.6561C61.1971 19.9879 61.6557 20.4442 61.9651 21.0249C62.2784 21.6018 62.435 22.2579 62.435 22.9932C62.435 23.736 62.2784 24.3959 61.9651 24.9729C61.6519 25.5498 61.1896 26.0041 60.5782 26.336C59.9668 26.664 59.2139 26.8281 58.3194 26.8281H55.4379V25.1029H58.0364C58.5572 25.1029 58.9836 25.0124 59.3158 24.8314C59.6479 24.6505 59.8932 24.4016 60.0517 24.0848C60.214 23.7681 60.2951 23.4042 60.2951 22.9932C60.2951 22.5822 60.214 22.2202 60.0517 21.9072C59.8932 21.5943 59.646 21.3511 59.3101 21.1776C58.978 21.0004 58.5496 20.9118 58.025 20.9118H56.1003V30.7421H54Z" fill="black"/>
<path d="M66.218 19.1584V30.7421H64.1687V19.1584H66.218Z" fill="black"/>
<path d="M70.8276 30.9174C70.2765 30.9174 69.7803 30.8194 69.3387 30.6233C68.9009 30.4235 68.5537 30.1293 68.2971 29.741C68.0442 29.3526 67.9178 28.8737 67.9178 28.3043C67.9178 27.8141 68.0083 27.4087 68.1895 27.0882C68.3707 26.7677 68.6179 26.5113 68.9311 26.319C69.2443 26.1267 69.5972 25.9815 69.9897 25.8835C70.386 25.7817 70.7955 25.7081 71.2182 25.6629C71.7277 25.6101 72.1409 25.563 72.458 25.5215C72.775 25.4762 73.0052 25.4084 73.1486 25.3179C73.2958 25.2236 73.3694 25.0784 73.3694 24.8824V24.8484C73.3694 24.4223 73.243 24.0924 72.9901 23.8586C72.7372 23.6248 72.373 23.5079 71.8975 23.5079C71.3956 23.5079 70.9974 23.6173 70.703 23.836C70.4124 24.0547 70.2162 24.313 70.1143 24.6109L68.2008 24.3394C68.3518 23.8115 68.6009 23.3703 68.9481 23.0158C69.2953 22.6576 69.7199 22.3899 70.2218 22.2127C70.7238 22.0317 71.2786 21.9412 71.8862 21.9412C72.3051 21.9412 72.7221 21.9902 73.1373 22.0882C73.5524 22.1863 73.9317 22.3484 74.2752 22.5747C74.6186 22.7971 74.8941 23.1007 75.1017 23.4853C75.313 23.8699 75.4187 24.3507 75.4187 24.9276V30.7421H73.4486V29.5486H73.3807C73.2562 29.79 73.0807 30.0162 72.8542 30.2274C72.6316 30.4348 72.3504 30.6026 72.0107 30.7308C71.6748 30.8552 71.2804 30.9174 70.8276 30.9174ZM71.3597 29.4129C71.7711 29.4129 72.1277 29.3318 72.4296 29.1697C72.7316 29.0038 72.9637 28.7851 73.126 28.5136C73.292 28.2421 73.375 27.9461 73.375 27.6256V26.6018C73.3109 26.6546 73.2014 26.7036 73.0467 26.7489C72.8957 26.7941 72.7259 26.8337 72.5372 26.8676C72.3485 26.9016 72.1617 26.9317 71.9768 26.9581C71.7918 26.9845 71.6314 27.0072 71.4956 27.026C71.1899 27.0675 70.9163 27.1354 70.6747 27.2296C70.4332 27.3239 70.2426 27.4559 70.1029 27.6256C69.9633 27.7915 69.8935 28.0064 69.8935 28.2704C69.8935 28.6474 70.0312 28.9321 70.3067 29.1244C70.5822 29.3167 70.9332 29.4129 71.3597 29.4129Z" fill="black"/>
<path d="M78.4417 34C78.1624 34 77.9039 33.9774 77.6661 33.9321C77.4322 33.8906 77.2453 33.8416 77.1057 33.7851L77.5812 32.19C77.8794 32.2768 78.1455 32.3182 78.3794 32.3145C78.6134 32.3107 78.8191 32.2372 78.9965 32.0939C79.1777 31.9544 79.3305 31.7206 79.455 31.3925L79.6305 30.9231L76.4773 22.0543H78.6512L80.6552 28.6154H80.7458L82.7555 22.0543H84.935L81.4534 31.7941C81.2911 32.2541 81.076 32.6482 80.808 32.9762C80.5401 33.3081 80.2117 33.5607 79.823 33.7342C79.4381 33.9114 78.9776 34 78.4417 34Z" fill="black"/>
<path d="M96.6987 22.3428C96.6459 21.8488 96.4232 21.4642 96.0307 21.1889C95.642 20.9137 95.1362 20.776 94.5135 20.776C94.0757 20.776 93.7002 20.842 93.387 20.974C93.0737 21.106 92.8341 21.2851 92.668 21.5113C92.5019 21.7376 92.417 21.9959 92.4133 22.2862C92.4133 22.5275 92.468 22.7368 92.5774 22.914C92.6907 23.0913 92.8435 23.2421 93.036 23.3665C93.2285 23.4872 93.4417 23.589 93.6757 23.6719C93.9097 23.7549 94.1455 23.8247 94.3833 23.8812L95.4702 24.1527C95.908 24.2545 96.3288 24.3922 96.7327 24.5656C97.1403 24.7391 97.5045 24.9578 97.8252 25.2217C98.1498 25.4857 98.4065 25.8043 98.5952 26.1776C98.7839 26.5509 98.8782 26.9883 98.8782 27.4898C98.8782 28.1686 98.7046 28.7662 98.3574 29.2828C98.0102 29.7956 97.5082 30.1972 96.8515 30.4876C96.1986 30.7741 95.408 30.9174 94.4796 30.9174C93.5776 30.9174 92.7944 30.7779 92.1302 30.4989C91.4697 30.2198 90.9527 29.8126 90.5791 29.2771C90.2092 28.7417 90.0092 28.0894 89.979 27.3201H92.0453C92.0755 27.7236 92.2 28.0592 92.4189 28.3269C92.6378 28.5946 92.9228 28.7945 93.2737 28.9265C93.6285 29.0584 94.0248 29.1244 94.4626 29.1244C94.9192 29.1244 95.3193 29.0566 95.6627 28.9208C96.0099 28.7813 96.2817 28.589 96.4779 28.3439C96.6742 28.095 96.7742 27.8047 96.778 27.4729C96.7742 27.1712 96.6855 26.9223 96.5119 26.7262C96.3383 26.5264 96.0948 26.3605 95.7816 26.2285C95.4721 26.0928 95.1098 25.9721 94.6947 25.8665L93.3756 25.5271C92.4208 25.2821 91.666 24.9106 91.1112 24.4129C90.5602 23.9114 90.2847 23.2459 90.2847 22.4163C90.2847 21.7338 90.4696 21.1361 90.8395 20.6233C91.2131 20.1105 91.7207 19.7127 92.3623 19.4299C93.0039 19.1433 93.7304 19 94.5418 19C95.3646 19 96.0854 19.1433 96.7044 19.4299C97.3271 19.7127 97.8158 20.1067 98.1706 20.612C98.5253 21.1135 98.7084 21.6904 98.7197 22.3428H96.6987Z" fill="black"/>
<path d="M105.002 22.0543V23.638H100.003V22.0543H105.002ZM101.237 19.9729H103.287V28.129C103.287 28.4042 103.328 28.6154 103.411 28.7624C103.498 28.9057 103.611 29.0038 103.751 29.0566C103.891 29.1094 104.045 29.1357 104.215 29.1357C104.344 29.1357 104.461 29.1263 104.566 29.1075C104.676 29.0886 104.759 29.0716 104.815 29.0566L105.161 30.6572C105.051 30.6949 104.895 30.7364 104.691 30.7817C104.491 30.8269 104.245 30.8533 103.955 30.8609C103.442 30.8759 102.979 30.7986 102.568 30.629C102.156 30.4555 101.83 30.1878 101.588 29.8258C101.351 29.4638 101.234 29.0113 101.237 28.4683V19.9729Z" fill="black"/>
<path d="M110.415 30.9118C109.566 30.9118 108.83 30.7251 108.208 30.3518C107.585 29.9785 107.102 29.4563 106.758 28.7851C106.419 28.1139 106.249 27.3296 106.249 26.4321C106.249 25.5347 106.419 24.7485 106.758 24.0735C107.102 23.3986 107.585 22.8744 108.208 22.5011C108.83 22.1278 109.566 21.9412 110.415 21.9412C111.265 21.9412 112.001 22.1278 112.623 22.5011C113.246 22.8744 113.727 23.3986 114.067 24.0735C114.41 24.7485 114.582 25.5347 114.582 26.4321C114.582 27.3296 114.41 28.1139 114.067 28.7851C113.727 29.4563 113.246 29.9785 112.623 30.3518C112.001 30.7251 111.265 30.9118 110.415 30.9118ZM110.427 29.2715C110.887 29.2715 111.272 29.1452 111.582 28.8925C111.891 28.6361 112.121 28.293 112.272 27.8631C112.427 27.4333 112.504 26.9544 112.504 26.4265C112.504 25.8948 112.427 25.414 112.272 24.9842C112.121 24.5505 111.891 24.2055 111.582 23.9491C111.272 23.6927 110.887 23.5645 110.427 23.5645C109.955 23.5645 109.563 23.6927 109.249 23.9491C108.94 24.2055 108.708 24.5505 108.553 24.9842C108.402 25.414 108.327 25.8948 108.327 26.4265C108.327 26.9544 108.402 27.4333 108.553 27.8631C108.708 28.293 108.94 28.6361 109.249 28.8925C109.563 29.1452 109.955 29.2715 110.427 29.2715Z" fill="black"/>
<path d="M116.321 30.7421V22.0543H118.308V23.5023H118.399C118.558 23.0008 118.829 22.6143 119.214 22.3428C119.603 22.0675 120.046 21.9299 120.545 21.9299C120.658 21.9299 120.784 21.9355 120.924 21.9468C121.067 21.9544 121.186 21.9676 121.281 21.9864V23.8699C121.194 23.8397 121.056 23.8133 120.867 23.7907C120.682 23.7643 120.503 23.7511 120.329 23.7511C119.956 23.7511 119.62 23.8322 119.322 23.9943C119.027 24.1527 118.795 24.3733 118.625 24.6561C118.456 24.9389 118.371 25.2651 118.371 25.6346V30.7421H116.321Z" fill="black"/>
<path d="M126.133 30.9118C125.262 30.9118 124.509 30.7308 123.875 30.3688C123.244 30.003 122.759 29.4864 122.42 28.819C122.08 28.1478 121.91 27.3578 121.91 26.4491C121.91 25.5554 122.08 24.7711 122.42 24.0962C122.763 23.4174 123.243 22.8895 123.858 22.5124C124.473 22.1316 125.196 21.9412 126.026 21.9412C126.562 21.9412 127.068 22.0279 127.543 22.2014C128.022 22.371 128.445 22.635 128.811 22.9932C129.181 23.3514 129.472 23.8077 129.683 24.362C129.894 24.9125 130 25.5686 130 26.3303V26.9581H122.873V25.5781H128.036C128.032 25.1859 127.947 24.8371 127.781 24.5317C127.615 24.2225 127.383 23.9793 127.085 23.802C126.79 23.6248 126.447 23.5362 126.054 23.5362C125.635 23.5362 125.267 23.638 124.95 23.8416C124.633 24.0415 124.386 24.3054 124.209 24.6335C124.035 24.9578 123.946 25.3141 123.943 25.7025V26.9072C123.943 27.4125 124.035 27.8462 124.22 28.2081C124.405 28.5664 124.663 28.8416 124.996 29.0339C125.328 29.2225 125.716 29.3167 126.162 29.3167C126.46 29.3167 126.73 29.2753 126.971 29.1923C127.213 29.1056 127.422 28.9793 127.6 28.8133C127.777 28.6474 127.911 28.4419 128.002 28.1968L129.915 28.4118C129.794 28.917 129.564 29.3582 129.224 29.7353C128.889 30.1086 128.458 30.3989 127.934 30.6063C127.409 30.81 126.809 30.9118 126.133 30.9118Z" fill="black"/>
</svg>
