<svg width="161" height="43" viewBox="0 0 161 43" fill="none" xmlns="http://www.w3.org/2000/svg">
<path d="M154.283 42.2383H5.93398C2.67029 42.2383 0 39.8623 0 36.9584V5.27904C0 2.3751 2.67029 -0.000850677 5.93398 -0.000850677H154.283C157.547 -0.000850677 160.217 2.3751 160.217 5.27904V36.9584C160.217 39.8623 157.547 42.2383 154.283 42.2383Z" fill="#C9C74D"/>
<path d="M33.2158 19.065L22.6719 30.3238C22.6723 30.3261 22.6731 30.3281 22.6735 30.3304C22.9968 31.5529 24.1067 32.4531 25.424 32.4531C25.9506 32.4531 26.445 32.3099 26.869 32.0585L26.9026 32.0386L38.7712 25.1486L33.2158 19.065Z" fill="#EB3131"/>
<path d="M43.8834 17.1488L43.8733 17.1419L38.7493 14.1535L32.9766 19.3214L38.7694 25.1484L43.8663 22.1898C44.7599 21.7044 45.3666 20.7567 45.3666 19.6638C45.3666 18.5788 44.7681 17.6357 43.8834 17.1488Z" fill="#F6B60B"/>
<path d="M22.6709 8.95554C22.6075 9.19068 22.5742 9.43698 22.5742 9.69274V29.5875C22.5742 29.8428 22.6071 30.0899 22.6713 30.3242L33.5781 19.3535L22.6709 8.95554Z" fill="#5778C5"/>
<path d="M33.294 19.6406L38.7515 14.1517L26.8964 7.23684C26.4655 6.97719 25.9626 6.82734 25.4244 6.82734C24.1071 6.82734 22.9957 7.72914 22.6723 8.95316C22.6719 8.95435 22.6719 8.95515 22.6719 8.95625L33.294 19.6406Z" fill="#3BAD49"/>
<path d="M59.7972 10.0183C59.7972 10.8531 59.5515 11.5179 59.0593 12.0138C58.5004 12.6034 57.7718 12.8984 56.8762 12.8984C56.0185 12.8984 55.2893 12.5995 54.6896 12.0009C54.0888 11.4027 53.7891 10.6609 53.7891 9.77579C53.7891 8.89031 54.0888 8.14891 54.6896 7.55028C55.2893 6.95206 56.0185 6.65275 56.8762 6.65275C57.3018 6.65275 57.7092 6.73644 58.0961 6.90344C58.4829 7.07083 58.7932 7.29302 59.0254 7.57131L58.503 8.0971C58.1096 7.62422 57.568 7.38797 56.8762 7.38797C56.2507 7.38797 55.7098 7.60907 55.2534 8.05156C54.7968 8.49455 54.5686 9.06896 54.5686 9.77579C54.5686 10.4826 54.7968 11.057 55.2534 11.5C55.7098 11.9425 56.2507 12.1636 56.8762 12.1636C57.5398 12.1636 58.093 11.9413 58.5359 11.4961C58.8234 11.2061 58.9897 10.803 59.0342 10.2852H56.8762V9.56715H59.7558C59.7836 9.72328 59.7972 9.87314 59.7972 10.0183Z" fill="black"/>
<path d="M59.7986 10.0202H59.6995C59.6987 10.836 59.4619 11.4696 58.9907 11.9452L58.9896 11.946L58.9892 11.9468C58.448 12.5162 57.7523 12.7995 56.8776 12.8007C56.0428 12.7995 55.3441 12.5131 54.7606 11.9324C54.1785 11.3505 53.8906 10.6402 53.8895 9.77772C53.8906 8.91485 54.1785 8.20494 54.7606 7.62345C55.3441 7.04236 56.0428 6.75551 56.8776 6.75431C57.2904 6.75431 57.6835 6.83532 58.0583 6.99683C58.4336 7.15954 58.73 7.37276 58.9509 7.6375L59.0267 7.57323L58.9567 7.50279L58.4344 8.02898L58.5044 8.09902L58.5807 8.03525C58.169 7.53896 57.5911 7.28877 56.8776 7.29026C56.2289 7.28946 55.6582 7.52262 55.1862 7.98195C54.7096 8.44277 54.4702 9.04946 54.4709 9.77772C54.4702 10.506 54.7096 11.1127 55.1862 11.5735C55.6582 12.0328 56.2289 12.266 56.8776 12.2652C57.5631 12.2664 58.1474 12.0324 58.6073 11.5685C58.9145 11.2586 59.0886 10.8294 59.1343 10.2957L59.1435 10.1875H56.9766V9.66871H59.7572V9.56908L59.6596 9.58661C59.6867 9.73766 59.6995 9.88124 59.6995 10.0202H59.7986H59.8976C59.8976 9.86878 59.8836 9.71315 59.8546 9.55124L59.84 9.46944H56.7786V10.2872V10.3868H59.0356V10.2872L58.9369 10.2786C58.8932 10.78 58.7346 11.1575 58.4673 11.4276C58.0417 11.8542 57.5195 12.0647 56.8776 12.0659C56.2752 12.0651 55.7642 11.8565 55.3236 11.4303C54.8872 11.0057 54.6701 10.4635 54.669 9.77772C54.6701 9.09191 54.8872 8.54978 55.3236 8.12513C55.7642 7.69898 56.2752 7.49033 56.8776 7.48954C57.5473 7.49113 58.053 7.71372 58.4286 8.16329L58.4983 8.24658L59.0968 7.64368L59.1609 7.57911L59.1025 7.50937C58.8592 7.21753 58.535 6.98587 58.1365 6.81389C57.7373 6.64142 57.3159 6.55504 56.8776 6.55504C55.9971 6.55424 55.2373 6.86561 54.621 7.48177C54.0024 8.09673 53.6906 8.86972 53.6914 9.77772C53.6906 10.6853 54.0024 11.4587 54.6214 12.0741C55.2373 12.6898 55.9971 13.0008 56.8776 13C57.7945 13.0008 58.5551 12.6944 59.1323 12.0845L59.0607 12.0157L59.1307 12.0861C59.6438 11.5704 59.8983 10.8737 59.8976 10.0202H59.7986Z" fill="black"/>
<path d="M64.3636 7.52179H61.6574V9.4173H64.0979V10.1357H61.6574V12.0312H64.3636V12.7656H60.8945V6.78736H64.3636V7.52179Z" fill="black"/>
<path d="M64.365 7.52372V7.42408H61.5598V9.51886H64.0002V10.0377L61.5598 10.038V12.1328H64.2659V12.6679H60.995V6.88893H64.2659V7.52372H64.365V7.42408V7.52372H64.464V6.78929V6.68965H60.7969V12.8672H64.464V12.0331V11.9335H61.7579V10.2373H64.1983V9.41922V9.31959H61.7579V7.62336H64.464V7.52372H64.365Z" fill="black"/>
<path d="M67.5839 12.7656H66.8199V7.52179H65.1602V6.78736H69.2436V7.52179H67.5839V12.7656Z" fill="black"/>
<path d="M67.5814 12.7675V12.6679H66.9164V7.42408H65.2567V6.88893H69.1421V7.42408H67.4824V12.7675H67.5814V12.6679V12.7675H67.6805V7.62336H69.3402V6.78929V6.68965H65.0586V7.52372V7.62336H66.7183V12.8672H67.5814H67.6805V12.7675H67.5814Z" fill="black"/>
<path d="M72.1953 12.7656V6.78736H72.9586V12.7656H72.1953Z" fill="black"/>
<path d="M72.1967 12.7675H72.2957V6.88893H72.8609V12.6679H72.1967V12.7675H72.2957H72.1967V12.8672H72.96H73.059V6.68965H72.1967H72.0977V12.8672H72.1967V12.7675Z" fill="black"/>
<path d="M76.3456 12.7656H75.5815V7.52179H73.9219V6.78736H78.0053V7.52179H76.3456V12.7656Z" fill="black"/>
<path d="M76.3469 12.7675V12.6679H75.6819V7.42408H74.0223V6.88893H77.9076V7.42408H76.2479V12.7675H76.3469V12.6679V12.7675H76.446V7.62336H78.1057V6.78929V6.68965H73.8242V7.52372V7.62336H75.4838V12.8672H76.3469H76.446V12.7675H76.3469Z" fill="black"/>
<path d="M81.943 11.4919C82.3829 11.9398 82.921 12.1636 83.5575 12.1636C84.1939 12.1636 84.7324 11.9398 85.1715 11.4919C85.6117 11.0439 85.8323 10.4713 85.8323 9.77579C85.8323 9.08032 85.6117 8.5077 85.1715 8.05973C84.7324 7.61176 84.1939 7.38797 83.5575 7.38797C82.921 7.38797 82.3829 7.61176 81.943 8.05973C81.5039 8.5077 81.2834 9.08032 81.2834 9.77579C81.2834 10.4713 81.5039 11.0439 81.943 11.4919ZM85.7363 11.9923C85.1521 12.5967 84.4255 12.8984 83.5575 12.8984C82.6885 12.8984 81.9624 12.5967 81.3794 11.9923C80.7948 11.3886 80.5039 10.6496 80.5039 9.77579C80.5039 8.90197 80.7948 8.16286 81.3794 7.55925C81.9624 6.95475 82.6885 6.65275 83.5575 6.65275C84.421 6.65275 85.1456 6.95634 85.7325 7.56314C86.3186 8.16993 86.6118 8.90745 86.6118 9.77579C86.6118 10.6496 86.3193 11.3886 85.7363 11.9923Z" fill="black"/>
<path d="M81.9444 11.4938L81.874 11.5638C82.3302 12.0297 82.8993 12.2664 83.5589 12.2652C84.2181 12.2664 84.7879 12.0297 85.2433 11.5638C85.7025 11.0975 85.9334 10.4942 85.9327 9.77772C85.9334 9.06122 85.7025 8.45791 85.2433 7.99161C84.7879 7.5257 84.2181 7.28906 83.5589 7.29026C82.8993 7.28906 82.3302 7.5257 81.874 7.99161C81.4159 8.45791 81.1846 9.06122 81.1858 9.77772C81.1846 10.4942 81.4159 11.0975 81.874 11.5638L81.9444 11.4938L82.0148 11.4237C81.5947 10.9936 81.3847 10.4526 81.3839 9.77772C81.3847 9.10287 81.5947 8.56184 82.0148 8.1317C82.4388 7.70167 82.9452 7.49073 83.5589 7.48954C84.172 7.49073 84.6796 7.70167 85.1025 8.1317C85.5234 8.56184 85.7335 9.10287 85.7343 9.77772C85.7335 10.4526 85.5234 10.9936 85.1025 11.4237C84.6796 11.8538 84.172 12.0647 83.5589 12.0659C82.9452 12.0647 82.4388 11.8538 82.0148 11.4237L81.9444 11.4938ZM85.7377 11.9943L85.6669 11.925C85.099 12.5104 84.4046 12.7995 83.5589 12.8007C82.7128 12.7995 82.0183 12.5104 81.4515 11.925L81.4488 11.9219L81.4515 11.925C80.8848 11.3376 80.6051 10.6293 80.6043 9.77772C80.6051 8.92611 80.8848 8.21779 81.4515 7.63042C82.0183 7.04505 82.7128 6.75551 83.5589 6.75431C84.3991 6.75551 85.092 7.04625 85.663 7.63471C86.2317 8.22476 86.513 8.93199 86.5142 9.77772C86.513 10.6293 86.2325 11.3376 85.6669 11.925L85.7377 11.9943L85.8089 12.0635C86.4093 11.4432 86.713 10.6737 86.7123 9.77772C86.713 8.88685 86.4081 8.11895 85.805 7.49581C85.2015 6.87029 84.4456 6.55394 83.5589 6.55503C82.6675 6.55394 81.9093 6.86879 81.3096 7.49193V7.49153C80.708 8.11227 80.4055 8.88177 80.4063 9.77772C80.4055 10.6737 80.708 11.4432 81.3096 12.0639L81.3123 12.0667L81.3096 12.0635C81.9093 12.6866 82.6675 13.0008 83.5589 13C84.4498 13.0008 85.2081 12.6866 85.8089 12.0635L85.7377 11.9943Z" fill="black"/>
<path d="M87.6836 12.7656V6.78736H88.6129L91.5009 11.4381H91.5337L91.5009 10.2859V6.78736H92.2649V12.7656H91.468L88.4465 7.88955H88.4136L88.4465 9.04206V12.7656H87.6836Z" fill="black"/>
<path d="M87.685 12.7675H87.784V6.88893H88.5593L91.4473 11.5396H91.5351H91.6368L91.6013 10.2864V6.88893H92.1673V12.6679H91.5243L88.5028 7.79184H88.415H88.3133L88.3488 9.04558V12.6679H87.685V12.7675H87.784H87.685V12.8672H88.4479H88.5469V9.0424L88.514 7.88879L88.415 7.89148V7.99112H88.4479V7.89148L88.3639 7.94449L91.4144 12.8672H92.2663H92.3654V6.68965H91.5022H91.4032V10.2891L91.4361 11.4427L91.5351 11.44V11.3403H91.5022V11.44L91.5862 11.3871L88.6691 6.68965H87.685H87.5859V12.8672H87.685V12.7675Z" fill="black"/>
<path d="M118.745 29.7042H120.594V17.2483H118.745V29.7042ZM135.391 21.7352L133.273 27.1354H133.209L131.01 21.7352H129.02L132.317 29.283L130.437 33.4815H132.365L137.446 21.7352H135.391ZM124.911 28.2894C124.305 28.2894 123.461 27.985 123.461 27.2316C123.461 26.2702 124.513 25.9016 125.42 25.9016C126.233 25.9016 126.614 26.0779 127.108 26.3185C126.965 27.4721 125.977 28.2894 124.911 28.2894ZM125.133 21.4627C123.795 21.4627 122.41 22.0558 121.836 23.3698L123.477 24.0587C123.827 23.3698 124.48 23.1452 125.165 23.1452C126.121 23.1452 127.092 23.7224 127.108 24.748V24.876C126.774 24.6837 126.058 24.3954 125.181 24.3954C123.413 24.3954 121.613 25.3726 121.613 27.1996C121.613 28.8662 123.063 29.94 124.687 29.94C125.93 29.94 126.614 29.3792 127.045 28.7223H127.108V29.6836H128.892V24.9079C128.892 22.6969 127.252 21.4627 125.133 21.4627ZM113.712 23.2515H111.084V18.9819H113.712C115.094 18.9819 115.878 20.1327 115.878 21.1166C115.878 22.0819 115.094 23.2515 113.712 23.2515ZM113.665 17.2483H109.237V29.7042H111.084V24.9851H113.665C115.713 24.9851 117.726 23.4932 117.726 21.1166C117.726 18.7402 115.713 17.2483 113.665 17.2483ZM89.518 28.2917C88.2413 28.2917 87.1724 27.2163 87.1724 25.7393C87.1724 24.2467 88.2413 23.155 89.518 23.155C90.7785 23.155 91.7677 24.2467 91.7677 25.7393C91.7677 27.2163 90.7785 28.2917 89.518 28.2917ZM91.64 22.4326H91.5761C91.1615 21.9351 90.3633 21.4857 89.3582 21.4857C87.2521 21.4857 85.3216 23.3476 85.3216 25.7393C85.3216 28.1151 87.2521 29.9611 89.3582 29.9611C90.3633 29.9611 91.1615 29.5115 91.5761 28.9982H91.64V29.608C91.64 31.2295 90.7785 32.0963 89.3903 32.0963C88.2575 32.0963 87.5554 31.2774 87.2679 30.5873L85.6567 31.2614C86.1194 32.385 87.348 33.7656 89.3903 33.7656C91.5603 33.7656 93.3952 32.4812 93.3952 29.3512V21.7425H91.64V22.4326ZM94.6715 29.7042H96.5223V17.2479H94.6715V29.7042ZM99.2509 25.5949C99.2029 23.9575 100.511 23.123 101.453 23.123C102.187 23.123 102.809 23.492 103.016 24.0222L99.2509 25.5949ZM104.995 24.1825C104.644 23.2351 103.575 21.4857 101.389 21.4857C99.2188 21.4857 97.416 23.2032 97.416 25.7234C97.416 28.0991 99.2029 29.9611 101.596 29.9611C103.527 29.9611 104.644 28.7732 105.107 28.0831L103.671 27.1198C103.192 27.8262 102.538 28.2917 101.596 28.2917C100.655 28.2917 99.9848 27.8582 99.5538 27.0077L105.186 24.6639L104.995 24.1825ZM60.122 22.786V24.5837H64.398C64.2703 25.5949 63.9353 26.3333 63.4246 26.847C62.8026 27.4732 61.8292 28.1633 60.122 28.1633C57.4892 28.1633 55.4311 26.0285 55.4311 23.3799C55.4311 20.7313 57.4892 18.5962 60.122 18.5962C61.5421 18.5962 62.5789 19.1581 63.3449 19.8805L64.6054 18.6125C63.5365 17.585 62.1162 16.7984 60.122 16.7984C56.5159 16.7984 53.4844 19.7521 53.4844 23.3799C53.4844 27.0077 56.5159 29.9611 60.122 29.9611C62.0687 29.9611 63.5365 29.3193 64.6851 28.1151C65.8659 26.9272 66.233 25.2579 66.233 23.9097C66.233 23.492 66.2012 23.1071 66.137 22.786H60.122ZM71.0944 28.2917C69.8177 28.2917 68.7167 27.2323 68.7167 25.7234C68.7167 24.1984 69.8177 23.155 71.0944 23.155C72.3706 23.155 73.4717 24.1984 73.4717 25.7234C73.4717 27.2323 72.3706 28.2917 71.0944 28.2917ZM71.0944 21.4857C68.7646 21.4857 66.8659 23.2674 66.8659 25.7234C66.8659 28.1633 68.7646 29.9611 71.0944 29.9611C73.4237 29.9611 75.3225 28.1633 75.3225 25.7234C75.3225 23.2674 73.4237 21.4857 71.0944 21.4857ZM80.3181 28.2917C79.0419 28.2917 77.9408 27.2323 77.9408 25.7234C77.9408 24.1984 79.0419 23.155 80.3181 23.155C81.5945 23.155 82.6955 24.1984 82.6955 25.7234C82.6955 27.2323 81.5945 28.2917 80.3181 28.2917ZM80.3181 21.4857C77.9885 21.4857 76.0901 23.2674 76.0901 25.7234C76.0901 28.1633 77.9885 29.9611 80.3181 29.9611C82.6476 29.9611 84.5463 28.1633 84.5463 25.7234C84.5463 23.2674 82.6476 21.4857 80.3181 21.4857Z" fill="black"/>
</svg>
