<svg width="192" height="104" viewBox="0 0 192 104" fill="none" xmlns="http://www.w3.org/2000/svg">
<path d="M85.0781 0H89.094V69.037H85.0781V0Z" fill="black"/>
<path d="M103.149 0H107.165V69.037H103.149V0Z" fill="black"/>
<path d="M94.1138 0H98.1296V21.3918H94.1138V0Z" fill="black"/>
<path d="M94.1138 27.2259H98.1296V69.037H94.1138V27.2259Z" fill="black"/>
<path d="M15.4844 86.5039H18.0846V103.996H15.4844V96.5094H2.57683V103.996H0V86.5039H2.57683V93.991H15.4844V86.5039Z" fill="black"/>
<path d="M39.7409 88.9996H31.987V101.501H39.7409V103.996H21.6562V101.501H29.4102V88.9996H21.6562V86.5039H39.7409V88.9996Z" fill="black"/>
<path d="M48.4662 96.5094V93.991H61.3971V99.0051C61.3971 101.773 59.078 103.996 56.2201 103.996H48.4662C45.6316 103.996 43.3125 101.773 43.3125 99.0051V91.4953C43.3125 88.7273 45.6316 86.5039 48.4662 86.5039H61.3971V88.9996H48.4662C47.0372 88.9996 45.8893 90.1113 45.8893 91.4953V99.0051C45.8893 100.389 47.0372 101.501 48.4662 101.501H56.2201C57.649 101.501 58.7969 100.389 58.7969 99.0051V96.5094H48.4662Z" fill="black"/>
<path d="M80.457 86.5039H83.0573V103.996H80.457V96.5094H67.5495V103.996H64.9727V86.5039H67.5495V93.991H80.457V86.5039Z" fill="black"/>
<path d="M126.37 88.9996H118.616V101.501H126.37V103.996H108.285V101.501H116.039V88.9996H108.285V86.5039H126.37V88.9996Z" fill="black"/>
<path d="M135.099 96.5094V93.991H148.03V99.0051C148.03 101.773 145.711 103.996 142.853 103.996H135.099C132.264 103.996 129.945 101.773 129.945 99.0051V91.4953C129.945 88.7273 132.264 86.5039 135.099 86.5039H148.03V88.9996H135.099C133.67 88.9996 132.522 90.1113 132.522 91.4953V99.0051C132.522 100.389 133.67 101.501 135.099 101.501H142.853C144.282 101.501 145.43 100.389 145.43 99.0051V96.5094H135.099Z" fill="black"/>
<path d="M167.09 86.5039H169.69V103.996H167.09V96.5094H154.182V103.996H151.605V86.5039H154.182V93.991H167.09V86.5039Z" fill="black"/>
<path d="M191.342 86.5039V88.9996H183.589V103.996H181.012V88.9996H173.258V86.5039H191.342Z" fill="black"/>
<rect x="86.5781" y="86.5039" width="2.53902" height="17.4926" fill="black"/>
<rect x="104.605" y="101.535" width="2.46374" height="18.0271" transform="rotate(90 104.605 101.535)" fill="black"/>
</svg>
