<svg width="71" height="21" viewBox="0 0 71 21" fill="none" xmlns="http://www.w3.org/2000/svg">
<g filter="url(#filter0_i_895_19808)">
<rect width="70.875" height="21" rx="2.625" fill="url(#paint0_linear_895_19808)"/>
</g>
<rect x="-0.65625" y="0.65625" width="69.5625" height="19.6875" rx="1.96875" transform="matrix(-1 0 0 1 69.5625 0)" stroke="url(#paint1_linear_895_19808)" stroke-width="1.3125"/>
<path d="M9.87964 14.5625V6.23953H13.225C14.9784 6.23953 16.1493 7.37003 16.1493 9.08307V9.0946C16.1493 10.8076 14.9784 11.9381 13.225 11.9381H11.6215V14.5625H9.87964ZM12.7982 7.61804H11.6215V10.5769H12.7982C13.796 10.5769 14.3843 10.0463 14.3843 9.10037V9.08884C14.3843 8.14291 13.796 7.61804 12.7982 7.61804ZM17.1817 14.5625V6.23953H20.6193C22.4881 6.23953 23.5955 7.2316 23.5955 8.90427V8.9158C23.5955 10.0117 23.013 10.923 22.0901 11.2864L23.8435 14.5625H21.8709L20.3194 11.5459H18.9236V14.5625H17.1817ZM18.9236 10.2251H20.429C21.2942 10.2251 21.8133 9.73483 21.8133 8.9158V8.90427C21.8133 8.10831 21.2653 7.60074 20.4059 7.60074H18.9236V10.2251ZM24.7491 14.5625V6.23953H30.2631V7.67572H26.491V9.67139H30.0497V11.0326H26.491V13.1263H30.2631V14.5625H24.7491ZM31.5205 14.5625V6.23953H33.5335L35.8983 12.2208H35.9329L38.2977 6.23953H40.3107V14.5625H38.7591V8.93311H38.7072L36.4635 14.5625H35.3676L33.1182 8.93311H33.0721V14.5625H31.5205ZM41.6949 14.5625V6.23953H43.4368V14.5625H41.6949ZM48.3106 14.7067C46.1765 14.7067 44.8211 13.4724 44.8211 11.6209V6.23953H46.563V11.4652C46.563 12.5438 47.1917 13.2301 48.3106 13.2301C49.4296 13.2301 50.0525 12.5438 50.0525 11.4652V6.23953H51.7944V11.6209C51.7944 13.4666 50.4563 14.7067 48.3106 14.7067ZM53.1844 14.5625V6.23953H55.1974L57.5622 12.2208H57.5968L59.9616 6.23953H61.9746V14.5625H60.4231V8.93311H60.3712L58.1275 14.5625H57.0316L54.7821 8.93311H54.736V14.5625H53.1844Z" fill="black"/>
<defs>
<filter id="filter0_i_895_19808" x="0" y="0" width="70.875" height="21" filterUnits="userSpaceOnUse" color-interpolation-filters="sRGB">
<feFlood flood-opacity="0" result="BackgroundImageFix"/>
<feBlend mode="normal" in="SourceGraphic" in2="BackgroundImageFix" result="shape"/>
<feColorMatrix in="SourceAlpha" type="matrix" values="0 0 0 0 0 0 0 0 0 0 0 0 0 0 0 0 0 0 127 0" result="hardAlpha"/>
<feOffset/>
<feGaussianBlur stdDeviation="2.625"/>
<feComposite in2="hardAlpha" operator="arithmetic" k2="-1" k3="1"/>
<feColorMatrix type="matrix" values="0 0 0 0 1 0 0 0 0 1 0 0 0 0 1 0 0 0 0.6 0"/>
<feBlend mode="normal" in2="shape" result="effect1_innerShadow_895_19808"/>
</filter>
<linearGradient id="paint0_linear_895_19808" x1="-13.3548" y1="18.6815" x2="67.9823" y2="16.0836" gradientUnits="userSpaceOnUse">
<stop offset="0.325272" stop-color="#FBE67B"/>
<stop offset="0.535488" stop-color="#FCE8BF"/>
<stop offset="0.769917" stop-color="#F7D14E"/>
<stop offset="1" stop-color="#D4A041"/>
</linearGradient>
<linearGradient id="paint1_linear_895_19808" x1="1.07254e-07" y1="1.575" x2="73.4333" y2="22.4844" gradientUnits="userSpaceOnUse">
<stop stop-color="#EDCB35" stop-opacity="0"/>
<stop offset="0.214038" stop-color="#FBD547"/>
<stop offset="0.655" stop-color="#E5BA4C"/>
<stop offset="1" stop-color="#E5BA4C"/>
</linearGradient>
</defs>
</svg>
