<svg width="30" height="30" viewBox="0 0 30 30" fill="none" xmlns="http://www.w3.org/2000/svg">
<rect x="0.46875" y="0.46875" width="29.0625" height="29.0625" rx="3.28125" stroke="#2E2E2E" stroke-width="0.9375"/>
<path d="M20.9727 9.01617C19.3899 7.43251 17.2795 6.5625 15.0322 6.5625C10.4047 6.5625 6.63499 10.3152 6.63097 14.9218C6.63097 16.3972 7.0176 17.8325 7.7506 19.1035L6.5625 23.4375L11.0169 22.2748C12.2452 22.9404 13.6266 23.2932 15.0322 23.2932H15.0362C19.6638 23.2932 23.4335 19.5405 23.4375 14.9298C23.4335 12.6967 22.5595 10.5958 20.9727 9.01617ZM15.0322 21.8779C13.7757 21.8779 12.5473 21.5411 11.476 20.9077L11.2223 20.7553L8.58025 21.4449L9.28505 18.879L9.11993 18.6144C8.41915 17.5078 8.05266 16.2288 8.05266 14.9178C8.05266 11.093 11.186 7.97376 15.0362 7.97376C16.901 7.97376 18.6529 8.69944 19.9739 10.0105C21.2909 11.3255 22.0158 13.0695 22.0158 14.9258C22.0118 18.7627 18.8784 21.8779 15.0322 21.8779ZM18.8623 16.6739C18.6529 16.5696 17.6219 16.0645 17.4285 15.9923C17.2352 15.9241 17.0943 15.8881 16.9573 16.0965C16.8164 16.305 16.4136 16.7781 16.2928 16.9144C16.172 17.0547 16.0471 17.0708 15.8377 16.9665C15.6283 16.8623 14.9517 16.6418 14.1502 15.9281C13.526 15.3749 13.1071 14.6893 12.9822 14.4808C12.8614 14.2723 12.9702 14.1601 13.0749 14.0558C13.1675 13.9636 13.2843 13.8113 13.389 13.691C13.4937 13.5707 13.53 13.4825 13.5984 13.3422C13.6669 13.2018 13.6347 13.0816 13.5823 12.9773C13.53 12.8731 13.1111 11.8427 12.9339 11.4257C12.7648 11.0168 12.5916 11.0729 12.4627 11.0689C12.3419 11.0609 12.2009 11.0609 12.06 11.0609C11.919 11.0609 11.6935 11.113 11.5001 11.3215C11.3068 11.53 10.7672 12.0351 10.7672 13.0655C10.7672 14.0959 11.5203 15.0862 11.625 15.2265C11.7297 15.3668 13.1031 17.4757 15.2094 18.3818C15.7088 18.5983 16.0995 18.7266 16.4056 18.8228C16.909 18.9832 17.3641 18.9592 17.7266 18.907C18.1293 18.8469 18.967 18.4019 19.1442 17.9127C19.3174 17.4236 19.3174 17.0066 19.2651 16.9184C19.2127 16.8302 19.0717 16.7781 18.8623 16.6739Z" fill="#2E2E2E"/>
</svg>
